<?xml version="1.0" encoding="UTF-8" standalone="no"?>
<svg
   xmlns:dc="http://purl.org/dc/elements/1.1/"
   xmlns:cc="http://creativecommons.org/ns#"
   xmlns:rdf="http://www.w3.org/1999/02/22-rdf-syntax-ns#"
   xmlns:svg="http://www.w3.org/2000/svg"
   xmlns="http://www.w3.org/2000/svg"
   xmlns:sodipodi="http://sodipodi.sourceforge.net/DTD/sodipodi-0.dtd"
   xmlns:inkscape="http://www.inkscape.org/namespaces/inkscape"
   version="1.2"
   width="120mm"
   height="80mm"
   viewBox="0 0 120 80"
   stroke="none"
   fill="#000000"
   stroke-width="0.3"
   font-size="3.88"
   id="svg2"
   inkscape:version="0.91 r13725"
   sodipodi:docname="gbs_Id.svg">
  <metadata
     id="metadata113">
    <rdf:RDF>
      <cc:Work
         rdf:about="">
        <dc:format>image/svg+xml</dc:format>
        <dc:type
           rdf:resource="http://purl.org/dc/dcmitype/StillImage" />
        <dc:title></dc:title>
      </cc:Work>
    </rdf:RDF>
  </metadata>
  <sodipodi:namedview
     pagecolor="#ffffff"
     bordercolor="#666666"
     borderopacity="1"
     objecttolerance="10"
     gridtolerance="10"
     guidetolerance="10"
     inkscape:pageopacity="0"
     inkscape:pageshadow="2"
     inkscape:window-width="1192"
     inkscape:window-height="671"
     id="namedview111"
     showgrid="false"
     inkscape:zoom="2.1841054"
     inkscape:cx="25.462503"
     inkscape:cy="157.82874"
     inkscape:window-x="0"
     inkscape:window-y="69"
     inkscape:window-maximized="0"
     inkscape:current-layer="img-7b49a0b4-17" />
  <g
     class="plotroot xscalable yscalable"
     id="img-7b49a0b4-1">
    <g
       font-size="3.88"
       font-family="'PT Sans','Helvetica Neue','Helvetica',sans-serif"
       fill="#564A55"
       stroke="#000000"
       stroke-opacity="0.000"
       id="img-7b49a0b4-2">
      <text
         x="63.08"
         y="68.38"
         text-anchor="middle"
         dy="0.6em"
         id="text6">Id(A)</text>
    </g>
    <g
       class="guide xlabels"
       font-size="2.82"
       id="img-7b49a0b4-3"
       transform="translate(0.1292164,2.5843279)"
       style="font-size:2.81999993px;font-family:'PT Sans Caption', 'Helvetica Neue', Helvetica, sans-serif;fill:#6c606b">
      <text
         x="22.049999"
         y="60.950001"
         dy="0"
         id="text9"
         style="text-anchor:middle">10\textsuperscript{<tspan
   style="font-size:83.33329558%"
   dy="-1.7225"
   font-size="83.3333%"
   id="tspan11">-8}</tspan>
<tspan
   dy="1.4355"
   id="tspan13" />
</text>
      <text
         x="42.57"
         y="60.950001"
         dy="0"
         id="text15"
         style="text-anchor:middle">10\textsuperscript{<tspan
   style="font-size:83.33329558%"
   dy="-1.7225"
   font-size="83.3333%"
   id="tspan17">-7}</tspan>
<tspan
   dy="1.4355"
   id="tspan19" />
</text>
      <text
         x="63.080002"
         y="60.950001"
         dy="0"
         id="text21"
         style="text-anchor:middle">10\textsuperscript{<tspan
   style="font-size:83.33329558%"
   dy="-1.7225"
   font-size="83.3333%"
   id="tspan23">-6}</tspan>
<tspan
   dy="1.4355"
   id="tspan25" />
</text>
      <text
         x="83.599998"
         y="60.950001"
         dy="0"
         id="text27"
         style="text-anchor:middle">10\textsuperscript{<tspan
   style="font-size:83.33329558%"
   dy="-1.7225"
   font-size="83.3333%"
   id="tspan29">-5}</tspan>
<tspan
   dy="1.4355"
   id="tspan31" />
</text>
      <text
         x="104.12"
         y="60.950001"
         dy="0"
         id="text33"
         style="text-anchor:middle">10\textsuperscript{<tspan
   style="font-size:83.33329558%"
   dy="-1.7225"
   font-size="83.3333%"
   id="tspan35">-4}</tspan>
<tspan
   dy="1.4355"
   id="tspan37" />
</text>
    </g>
    <g
       class="guide colorkey"
       id="img-7b49a0b4-4">
      <g
         fill="#4C404B"
         font-size="2.82"
         font-family="'PT Sans','Helvetica Neue','Helvetica',sans-serif"
         id="img-7b49a0b4-5">
        <text
           x="109.64"
           y="32.47"
           dy="0.35em"
           id="text41">NwA</text>
        <text
           x="109.64"
           y="38.468109"
           dy="0"
           id="text43">NwB</text>
      </g>
      <g
         stroke="#000000"
         stroke-opacity="0.000"
         id="img-7b49a0b4-6">
        <rect
           x="107.12"
           y="31.71"
           width="1.52"
           height="1.52"
           fill="#008000"
           id="rect46" />
        <rect
           x="107.12"
           y="36.862938"
           width="1.52"
           height="1.52"
           id="rect48"
           style="fill:#00bfff" />
      </g>
      <g
         fill="#362A35"
         font-size="3.88"
         font-family="'PT Sans','Helvetica Neue','Helvetica',sans-serif"
         stroke="#000000"
         stroke-opacity="0.000"
         id="img-7b49a0b4-7">
        <text
           x="107.12"
           y="25.670593"
           id="text51">Nw</text>
      </g>
    </g>
    <g
       clip-path="url(#img-7b49a0b4-8)"
       id="g53">
      <g
         id="img-7b49a0b4-9">
        <g
           pointer-events="visible"
           opacity="1"
           fill="#000000"
           fill-opacity="0.000"
           stroke="#000000"
           stroke-opacity="0.000"
           class="guide background"
           id="img-7b49a0b4-10">
          <rect
             x="20.05"
             y="5"
             width="86.07"
             height="54.95"
             id="rect57" />
        </g>
        <g
           class="guide xgridlines yfixed"
           stroke-dasharray="0.5,0.5"
           stroke-width="0.2"
           stroke="#D0D0E0"
           id="img-7b49a0b4-11">
          <path
             fill="none"
             d="M22.05,5 L 22.05 59.95"
             id="path60" />
          <path
             fill="none"
             d="M42.57,5 L 42.57 59.95"
             id="path62" />
          <path
             fill="none"
             d="M63.08,5 L 63.08 59.95"
             id="path64" />
          <path
             fill="none"
             d="M83.6,5 L 83.6 59.95"
             id="path66" />
          <path
             fill="none"
             d="M104.12,5 L 104.12 59.95"
             id="path68" />
        </g>
        <g
           class="guide ygridlines xfixed"
           stroke-dasharray="0.5,0.5"
           stroke-width="0.2"
           stroke="#D0D0E0"
           id="img-7b49a0b4-12">
          <path
             fill="none"
             d="M20.05,52.59 L 106.12 52.59"
             id="path71" />
          <path
             fill="none"
             d="M20.05,29.79 L 106.12 29.79"
             id="path73" />
          <path
             fill="none"
             d="M20.05,7 L 106.12 7"
             id="path75" />
        </g>
        <g
           class="plotpanel"
           id="img-7b49a0b4-13">
          <g
             stroke-width="0.79"
             fill="#000000"
             fill-opacity="0.000"
             class="geometry"
             stroke-dasharray="none"
             stroke="#00BFFF"
             id="img-7b49a0b4-14">
            <path
               fill="none"
               d="M41.11,56.86 L 41.46 56.99 41.85 57.08 42.27 57.15 42.71 57.31 43.17 57.05 43.64 56.32 44.1 55.63 44.56 54.95 45.03 54.3 45.49 53.66 45.94 53.04 46.4 52.43 46.85 51.84 47.29 51.23 47.73 50.69 48.17 50.26 48.61 49.86 49.05 49.47 49.48 49.1 49.91 48.74 50.33 48.4 50.76 48.08 51.17 47.76 51.58 47.45 51.99 47.09 52.4 46.72 52.8 46.36 53.19 46.01 53.59 45.67 53.98 45.35 54.36 45.03 54.74 44.72 55.12 44.42 55.49 44.11 55.85 43.78 56.22 43.44 56.58 43.11 56.94 42.79 57.3 42.48 57.65 42.18 58 41.89 58.35 41.61 58.69 41.33 59.03 41.05 59.37 40.76 59.7 40.46 60.03 40.17 60.36 39.89 60.68 39.62 61.01 39.35 61.33 39.09 61.64 38.84 61.96 38.6 62.27 38.31 62.58 37.96 62.89 37.58 63.2 37.22 63.51 36.86 63.82 36.52 64.13 36.2 64.44 35.88 64.75 35.57 65.06 35.27 65.37 34.96 65.68 34.62 65.98 34.26 66.29 33.93 66.6 33.6 66.91 33.28 67.21 32.97 67.52 32.67 67.82 32.38 68.12 32.1 68.42 31.78 68.72 31.35 69.03 30.9 69.33 30.47 69.64 30.06 69.96 29.66 70.27 29.28 70.59 28.91 70.9 28.56 71.22 28.22 71.53 27.84 71.85 27.4 72.17 26.93 72.49 26.48 72.82 26.05 73.15 25.64 73.47 25.24 73.8 24.86 74.13 24.5 74.46 24.15 74.79 23.75 75.12 23.28 75.46 22.78 75.8 22.31 76.14 21.86 76.49 21.43 76.83 21.02 77.18 20.62 77.53 20.24 77.87 19.87 78.22 19.52 78.56 19.2 78.91 18.89 79.25 18.59 79.58 18.3 79.92 18.01 80.25 17.74 80.57 17.47 80.9 17.21 81.22 16.96 81.54 16.7 81.85 16.43 82.16 16.15 82.47 15.89 82.78 15.63 83.09 15.38 83.39 15.13 83.69 14.89 83.99 14.66 84.28 14.43 84.57 14.22 84.86 14.06 85.14 13.92 85.42 13.78 85.69 13.64 85.96 13.5 86.22 13.36 86.48 13.23 86.74 13.1 86.99 12.97 87.24 12.84 87.48 12.74 87.72 12.64 87.96 12.54 88.19 12.45 88.42 12.36 88.64 12.26 88.86 12.17 89.08 12.08 89.3 11.99 89.51 11.95 89.72 12.01 89.92 12.11 90.11 12.22 90.3 12.33 90.48 12.44 90.65 12.55 90.82 12.67 90.99 12.78 91.15 12.9 91.3 12.97 91.46 12.96 91.61 12.91 91.76 12.86 91.9 12.81 92.05 12.76 92.19 12.71 92.34 12.66 92.48 12.6 92.62 12.55 92.75 12.54 92.89 12.61 93.02 12.71 93.15 12.82 93.28 12.92 93.4 13.03 93.52 13.14 93.63 13.25 93.75 13.36 93.86 13.47 93.97 13.59 94.08 13.69 94.18 13.78 94.28 13.87 94.38 13.96 94.48 14.05 94.57 14.14 94.66 14.24 94.76 14.34 94.84 14.44 94.93 14.52 95.01 14.69 95.1 14.97 95.18 15.24 95.26 15.51 95.34 15.77 95.41 16.04 95.49 16.3 95.57 16.55 95.64 16.81 95.71 17.29 95.78 17.68 95.84 17.74 95.9 17.83 95.94 17.94"
               id="path79" />
          </g>
          <g
             stroke-width="0.79"
             fill="#000000"
             fill-opacity="0.000"
             class="geometry"
             stroke-dasharray="none"
             stroke="#008000"
             id="img-7b49a0b4-15">
            <path
               fill="none"
               d="M42.88,57.45 L 43.15 57.58 43.45 57.67 43.78 57.75 44.14 57.95 44.51 57.81 44.88 57.24 45.24 56.68 45.61 56.13 45.98 55.59 46.34 55.06 46.7 54.53 47.06 54.02 47.41 53.51 47.76 52.96 48.12 52.44 48.47 52.01 48.83 51.61 49.19 51.22 49.55 50.85 49.91 50.49 50.26 50.15 50.62 49.83 50.98 49.52 51.33 49.18 51.68 48.76 52.04 48.3 52.4 47.86 52.76 47.44 53.12 47.04 53.48 46.65 53.83 46.28 54.19 45.92 54.55 45.57 54.9 45.2 55.25 44.78 55.61 44.34 55.96 43.92 56.32 43.52 56.67 43.14 57.03 42.77 57.39 42.41 57.74 42.07 58.09 41.73 58.44 41.35 58.79 40.89 59.14 40.39 59.5 39.92 59.86 39.47 60.22 39.03 60.59 38.62 60.95 38.22 61.31 37.84 61.67 37.47 62.03 37.07 62.39 36.6 62.76 36.1 63.13 35.62 63.5 35.17 63.87 34.74 64.24 34.32 64.61 33.93 64.98 33.54 65.35 33.17 65.72 32.77 66.09 32.27 66.46 31.75 66.84 31.26 67.22 30.79 67.6 30.34 67.98 29.91 68.36 29.49 68.74 29.1 69.12 28.72 69.5 28.3 69.88 27.81 70.26 27.3 70.64 26.81 71.03 26.34 71.42 25.9 71.81 25.47 72.2 25.07 72.58 24.68 72.97 24.3 73.35 23.9 73.74 23.46 74.12 23 74.51 22.56 74.89 22.14 75.27 21.74 75.66 21.35 76.04 20.98 76.42 20.62 76.79 20.27 77.17 19.92 77.54 19.56 77.91 19.19 78.28 18.84 78.64 18.5 79.01 18.17 79.37 17.86 79.72 17.55 80.08 17.25 80.43 16.96 80.78 16.66 81.12 16.33 81.46 15.98 81.81 15.65 82.15 15.33 82.48 15.02 82.82 14.71 83.15 14.42 83.48 14.14 83.81 13.86 84.14 13.61 84.46 13.39 84.77 13.19 85.08 12.99 85.39 12.8 85.69 12.61 85.99 12.43 86.28 12.24 86.57 12.07 86.86 11.89 87.14 11.72 87.42 11.57 87.69 11.41 87.96 11.26 88.22 11.11 88.48 10.96 88.74 10.82 88.99 10.67 89.24 10.53 89.49 10.39 89.73 10.26 89.97 10.14 90.21 10.03 90.44 9.92 90.67 9.81 90.9 9.71 91.12 9.6 91.34 9.5 91.56 9.4 91.77 9.3 91.98 9.21 92.19 9.15 92.39 9.11 92.59 9.06 92.79 9.02 92.98 8.97 93.17 8.93 93.36 8.88 93.54 8.84 93.72 8.8 93.9 8.76 94.07 8.73 94.24 8.71 94.41 8.7 94.58 8.68 94.74 8.66 94.9 8.64 95.06 8.62 95.22 8.6 95.37 8.58 95.52 8.58 95.67 8.6 95.81 8.65 95.95 8.69 96.09 8.74 96.23 8.78 96.37 8.82 96.5 8.87 96.63 8.91 96.75 8.96 96.88 9.01 97 9.07 97.12 9.12 97.24 9.17 97.35 9.22 97.46 9.27 97.57 9.32 97.68 9.37 97.79 9.43 97.89 9.48 97.99 9.5 98.09 9.59 98.19 9.77 98.29 9.94 98.38 10.11 98.48 10.27 98.58 10.43 98.67 10.59 98.76 10.74 98.86 10.89 98.95 11.3 99.04 11.66 99.11 11.73 99.18 11.81 99.24 11.92"
               id="path82" />
          </g>
        </g>
      </g>
    </g>
    <g
       class="guide ylabels"
       font-size="2.82"
       font-family="'PT Sans Caption','Helvetica Neue','Helvetica',sans-serif"
       fill="#6C606B"
       id="img-7b49a0b4-16">
      <text
         x="19.049999"
         y="52.59"
         dy="0"
         id="text85"
         style="text-anchor:end">10<tspan
   style="font-size:83.33329558%"
   font-size="83.3333%"
   id="tspan87">\textsuperscript{-6}</tspan>
<tspan
   dy="1.4355"
   id="tspan89" />
</text>
      <text
         x="19.049999"
         y="29.790001"
         dy="0"
         id="text91"
         style="text-anchor:end">10\textsuperscript{<tspan
   style="font-size:83.33329558%"
   dy="-1.7225"
   font-size="83.3333%"
   id="tspan93">-5}</tspan>
<tspan
   dy="1.4355"
   id="tspan95" />
</text>
      <text
         x="19.049999"
         y="7"
         dy="0"
         id="text97"
         style="text-anchor:end">10\textsuperscript{<tspan
   style="font-size:83.33329558%"
   dy="-1.7225"
   font-size="83.3333%"
   id="tspan99">-4}</tspan>
<tspan
   dy="1.4355"
   id="tspan101" />
</text>
    </g>
    <g
       font-size="3.88"
       id="img-7b49a0b4-17"
       transform="translate(-0.56444445,6.0731705)"
       style="font-size:3.88000011px;font-family:'PT Sans', 'Helvetica Neue', Helvetica, sans-serif;fill:#564a55;stroke:#000000;stroke-opacity:0">
      <text
         x="-2.6078365"
         y="32.171638"
         transform="matrix(0.99985,0.01731979,-0.01731979,0.99985,0,0)"
         id="text104"
         style="text-anchor:middle">Transconductance</text>
      <text
         style="text-anchor:middle"
         id="text4193"
         transform="matrix(0.99985,0.01731979,-0.01731979,0.99985,0,0)"
         y="37.854069"
         x="-2.3801675">($\frac{dA}{dV}$)</text>
    </g>
  </g>
  <defs
     id="defs106">
    <clipPath
       id="img-7b49a0b4-8">
      <path
         d="M20.05,5 L 106.12 5 106.12 59.95 20.05 59.95"
         id="path109" />
    </clipPath>
  </defs>
</svg>
