<?xml version="1.0" encoding="UTF-8"?>
<svg xmlns="http://www.w3.org/2000/svg"
     xmlns:xlink="http://www.w3.org/1999/xlink"
     xmlns:gadfly="http://www.gadflyjl.org/ns"
     version="1.2"
     width="120mm" height="40mm" viewBox="0 0 120 40"
     stroke="none"
     fill="#000000"
     stroke-width="0.3"
     font-size="3.88"
>
<g class="plotroot xscalable yscalable" id="img-3166fbe1-1">
  <g font-size="3.88" font-family="'PT Sans','Helvetica Neue','Helvetica',sans-serif" fill="#564A55" stroke="#000000" stroke-opacity="0.000" id="img-3166fbe1-2">
    <text x="67.93" y="28.38" text-anchor="middle" dy="0.6em">Time(s)</text>
  </g>
  <g class="guide xlabels" font-size="2.82" font-family="'PT Sans Caption','Helvetica Neue','Helvetica',sans-serif" fill="#6C606B" id="img-3166fbe1-3">
    <text x="22.86" y="22.33" text-anchor="middle" dy="0.6em">0.98</text>
    <text x="45.4" y="22.33" text-anchor="middle" dy="0.6em">1.00</text>
    <text x="67.93" y="22.33" text-anchor="middle" dy="0.6em">1.02</text>
    <text x="90.47" y="22.33" text-anchor="middle" dy="0.6em">1.04</text>
    <text x="113" y="22.33" text-anchor="middle" dy="0.6em">1.06</text>
  </g>
<g clip-path="url(#img-3166fbe1-4)">
  <g id="img-3166fbe1-5">
    <g pointer-events="visible" opacity="1" fill="#000000" fill-opacity="0.000" stroke="#000000" stroke-opacity="0.000" class="guide background" id="img-3166fbe1-6">
      <rect x="20.86" y="5" width="94.14" height="16.33"/>
    </g>
    <g class="guide ygridlines xfixed" stroke-dasharray="0.5,0.5" stroke-width="0.2" stroke="#D0D0E0" id="img-3166fbe1-7">
      <path fill="none" d="M20.86,19.33 L 115 19.33"/>
      <path fill="none" d="M20.86,16.87 L 115 16.87"/>
      <path fill="none" d="M20.86,14.4 L 115 14.4"/>
      <path fill="none" d="M20.86,11.93 L 115 11.93"/>
      <path fill="none" d="M20.86,9.47 L 115 9.47"/>
      <path fill="none" d="M20.86,7 L 115 7"/>
    </g>
    <g class="guide xgridlines yfixed" stroke-dasharray="0.5,0.5" stroke-width="0.2" stroke="#D0D0E0" id="img-3166fbe1-8">
      <path fill="none" d="M22.86,5 L 22.86 21.33"/>
      <path fill="none" d="M45.4,5 L 45.4 21.33"/>
      <path fill="none" d="M67.93,5 L 67.93 21.33"/>
      <path fill="none" d="M90.47,5 L 90.47 21.33"/>
      <path fill="none" d="M113,5 L 113 21.33"/>
    </g>
    <g class="plotpanel" id="img-3166fbe1-9">
      <g stroke-width="1.32" fill="#000000" fill-opacity="0.000" class="geometry" stroke-dasharray="none" stroke="#00BFFF" id="img-3166fbe1-10">
        <path fill="none" d="M22.86,7 L 23.99 7 25.12 7 26.24 7 27.37 7 28.5 7 29.62 7 30.75 7 31.88 7 33 7 34.13 7 35.26 7 36.38 7 37.51 7 38.64 7 39.76 7 40.89 7 42.02 7 43.14 7 44.27 7 45.4 7 46.52 16.87 47.65 16.87 48.78 16.87 49.9 16.87 51.03 16.87 52.16 16.87 53.28 16.87 54.41 16.87 55.54 16.87 56.66 16.87 57.79 16.87 58.92 16.87 60.04 16.87 61.17 16.87 62.3 16.87 63.42 16.87 64.55 16.87 65.68 16.87 66.8 16.87 67.93 16.87 69.06 16.87 70.18 16.87 71.31 16.87 72.44 16.87 73.56 16.87 74.69 16.87 75.82 16.87 76.95 16.87 78.07 16.87 79.2 16.87 80.33 16.87 81.45 16.87 82.58 16.87 83.71 16.87 84.83 16.87 85.96 16.87 87.09 16.87 88.21 16.87 89.34 16.87 90.47 16.87 91.59 16.87 92.72 16.87 93.85 16.87 94.97 16.87 96.1 16.87 97.23 16.87 98.35 16.87 99.48 16.87 100.61 16.87 101.73 16.87 102.86 16.87 103.99 16.87 105.11 16.87 106.24 16.87 107.37 16.87"/>
      </g>
    </g>
  </g>
</g>
  <g class="guide ylabels" font-size="2.82" font-family="'PT Sans Caption','Helvetica Neue','Helvetica',sans-serif" fill="#6C606B" id="img-3166fbe1-11">
    <text x="19.86" y="19.33" text-anchor="end" dy="0.35em">2.055</text>
    <text x="19.86" y="16.87" text-anchor="end" dy="0.35em">2.060</text>
    <text x="19.86" y="14.4" text-anchor="end" dy="0.35em">2.065</text>
    <text x="19.86" y="11.93" text-anchor="end" dy="0.35em">2.070</text>
    <text x="19.86" y="9.47" text-anchor="end" dy="0.35em">2.075</text>
    <text x="19.86" y="7" text-anchor="end" dy="0.35em">2.080</text>
  </g>
  <g font-size="3.88" font-family="'PT Sans','Helvetica Neue','Helvetica',sans-serif" fill="#564A55" stroke="#000000" stroke-opacity="0.000" id="img-3166fbe1-12">
    <text x="8.4" y="11.17" text-anchor="middle" dy="0.35em" transform="rotate(-90, 8.4, 13.17)">Vin</text>
  </g>
</g>
<defs>
  <clipPath id="img-3166fbe1-4">
  <path d="M20.86,5 L 115 5 115 21.33 20.86 21.33" />
</clipPath>
</defs>
</svg>
