<?xml version="1.0" encoding="UTF-8" standalone="no"?>
<svg
   xmlns:dc="http://purl.org/dc/elements/1.1/"
   xmlns:cc="http://creativecommons.org/ns#"
   xmlns:rdf="http://www.w3.org/1999/02/22-rdf-syntax-ns#"
   xmlns:svg="http://www.w3.org/2000/svg"
   xmlns="http://www.w3.org/2000/svg"
   xmlns:sodipodi="http://sodipodi.sourceforge.net/DTD/sodipodi-0.dtd"
   xmlns:inkscape="http://www.inkscape.org/namespaces/inkscape"
   version="1.2"
   width="120mm"
   height="40mm"
   viewBox="0 0 120 40"
   stroke="none"
   fill="#000000"
   stroke-width="0.3"
   font-size="3.88"
   id="svg2"
   inkscape:version="0.91 r13725"
   sodipodi:docname="Tran_out.svg">
  <metadata
     id="metadata57">
    <rdf:RDF>
      <cc:Work
         rdf:about="">
        <dc:format>image/svg+xml</dc:format>
        <dc:type
           rdf:resource="http://purl.org/dc/dcmitype/StillImage" />
      </cc:Work>
    </rdf:RDF>
  </metadata>
  <sodipodi:namedview
     pagecolor="#ffffff"
     bordercolor="#666666"
     borderopacity="1"
     objecttolerance="10"
     gridtolerance="10"
     guidetolerance="10"
     inkscape:pageopacity="0"
     inkscape:pageshadow="2"
     inkscape:window-width="1285"
     inkscape:window-height="678"
     id="namedview55"
     showgrid="false"
     inkscape:zoom="2.7969933"
     inkscape:cx="183.01796"
     inkscape:cy="37.033274"
     inkscape:window-x="0"
     inkscape:window-y="23"
     inkscape:window-maximized="0"
     inkscape:current-layer="img-b240eef6-35" />
  <g
     class="plotroot xscalable yscalable"
     id="img-b240eef6-1">
    <g
       class="guide colorkey"
       id="img-b240eef6-2">
      <g
         fill="#4C404B"
         font-size="2.82"
         font-family="'PT Sans','Helvetica Neue','Helvetica',sans-serif"
         id="img-b240eef6-3">
        <text
           x="103.94"
           y="20"
           dy="0.35em"
           id="img-b240eef6-4"
           class="color_gm=50u">gm=50u</text>
        <text
           x="103.94"
           y="23.61"
           dy="0.35em"
           id="img-b240eef6-5"
           class="color_gm=200n">gm=200n</text>
      </g>
      <g
         stroke="#000000"
         stroke-opacity="0.000"
         id="img-b240eef6-6">
        <rect
           x="101.14"
           y="19.1"
           width="1.8"
           height="1.8"
           id="img-b240eef6-7"
           class="color_gm=50u"
           fill="#00BFFF" />
        <rect
           x="101.14"
           y="22.71"
           width="1.8"
           height="1.8"
           id="img-b240eef6-8"
           class="color_gm=200n"
           fill="#D4CA3A" />
      </g>
      <g
         fill="#362A35"
         font-size="3.88"
         font-family="'PT Sans','Helvetica Neue','Helvetica',sans-serif"
         stroke="#000000"
         stroke-opacity="0.000"
         id="img-b240eef6-9">
        <text
           x="101.14"
           y="15.41"
           id="img-b240eef6-10">name</text>
      </g>
    </g>
    <g
       clip-path="url(#img-b240eef6-11)"
       id="g14">
      <g
         id="img-b240eef6-12">
        <g
           pointer-events="visible"
           opacity="1"
           fill="#000000"
           fill-opacity="0.000"
           stroke="#000000"
           stroke-opacity="0.000"
           class="guide background"
           id="img-b240eef6-13">
          <rect
             x="21.75"
             y="5"
             width="78.39"
             height="30"
             id="img-b240eef6-14" />
        </g>
        <g
           class="guide ygridlines xfixed"
           stroke-dasharray="0.5,0.5"
           stroke-width="0.2"
           stroke="#D0D0E0"
           id="img-b240eef6-15">
          <path
             fill="none"
             d="M21.75,33 L 100.14 33"
             id="img-b240eef6-16" />
          <path
             fill="none"
             d="M21.75,20 L 100.14 20"
             id="img-b240eef6-17" />
          <path
             fill="none"
             d="M21.75,13.5 L 100.14 13.5"
             id="img-b240eef6-18" />
          <path
             fill="none"
             d="M21.75,7 L 100.14 7"
             id="img-b240eef6-19" />
          <path
             fill="none"
             d="M21.75,24.68 L 100.14 24.68"
             id="img-b240eef6-20" />
          <path
             fill="none"
             d="M21.75,11.51 L 100.14 11.51"
             id="img-b240eef6-21" />
          <path
             fill="none"
             d="M21.75,25.25 L 100.14 25.25"
             id="img-b240eef6-22" />
          <path
             fill="none"
             d="M21.75,24.67 L 100.14 24.67"
             id="img-b240eef6-23" />
        </g>
        <g
           class="guide xgridlines yfixed"
           stroke-dasharray="0.5,0.5"
           stroke-width="0.2"
           stroke="#D0D0E0"
           id="img-b240eef6-24">
          <path
             fill="none"
             d="M23.75,5 L 23.75 35"
             id="img-b240eef6-25" />
          <path
             fill="none"
             d="M42.35,5 L 42.35 35"
             id="img-b240eef6-26" />
          <path
             fill="none"
             d="M60.94,5 L 60.94 35"
             id="img-b240eef6-27" />
          <path
             fill="none"
             d="M79.54,5 L 79.54 35"
             id="img-b240eef6-28" />
          <path
             fill="none"
             d="M98.14,5 L 98.14 35"
             id="img-b240eef6-29" />
        </g>
        <g
           class="plotpanel"
           id="img-b240eef6-30">
          <g
             stroke-width="0.53"
             fill="#000000"
             fill-opacity="0.000"
             class="geometry color_gm=200n"
             stroke-dasharray="none"
             stroke="#D4CA3A"
             id="img-b240eef6-31">
            <path
               fill="none"
               d="M23.75,25.25 L 24.68 25.25 25.61 25.25 26.54 25.25 27.47 25.25 28.4 25.24 29.33 25.24 30.26 25.24 31.19 25.24 32.12 25.23 33.05 25.24 33.98 25.24 34.91 25.25 35.84 25.26 36.77 25.28 37.7 25.28 38.63 25.29 39.56 25.3 40.49 25.32 41.42 25.32 42.35 25.33 43.28 24.67 44.21 24.67 45.14 24.67 46.07 24.65 47 24.65 47.93 24.67 48.85 24.67 49.78 24.68 50.71 24.69 51.64 24.71 52.57 24.71 53.5 24.71 54.43 24.72 55.36 24.72 56.29 24.73 57.22 24.74 58.15 24.76 59.08 24.77 60.01 24.78 60.94 24.8 61.87 24.81 62.8 24.82 63.73 24.84 64.66 24.84 65.59 24.84 66.52 24.84 67.45 24.84 68.38 24.85 69.31 24.85 70.24 24.85 71.17 24.85 72.1 24.85 73.03 24.84 73.96 24.82 74.89 24.82 75.82 24.81 76.75 24.8 77.68 24.78 78.61 24.77 79.54 24.77 80.47 24.76 81.4 24.74 82.33 24.73 83.26 24.72 84.19 24.71 85.12 24.69 86.05 24.68 86.98 24.65 87.91 24.64 88.84 24.63 89.77 24.62 90.7 24.6 91.63 24.58 92.56 24.56 93.49 24.55"
               id="img-b240eef6-32" />
          </g>
          <g
             stroke-width="1.06"
             fill="#000000"
             fill-opacity="0.000"
             class="geometry color_gm=50u"
             stroke-dasharray="none"
             stroke="#00BFFF"
             id="img-b240eef6-33">
            <path
               fill="none"
               d="M23.75,24.68 L 24.68 24.69 25.61 24.71 26.54 24.72 27.47 24.73 28.4 24.76 29.33 24.76 30.26 24.74 31.19 24.74 32.12 24.74 33.05 24.74 33.98 24.74 34.91 24.72 35.84 24.71 36.77 24.68 37.7 24.67 38.63 24.64 39.56 24.63 40.49 24.6 41.42 24.59 42.35 24.56 43.28 11.51 44.21 13.76 45.14 14.4 46.07 14.77 47 15.07 47.93 15.32 48.85 15.53 49.78 15.7 50.71 15.85 51.64 16.01 52.57 16.13 53.5 16.24 54.43 16.37 55.36 16.49 56.29 16.59 57.22 16.7 58.15 16.81 59.08 16.92 60.01 17.01 60.94 17.1 61.87 17.19 62.8 17.27 63.73 17.36 64.66 17.45 65.59 17.53 66.52 17.61 67.45 17.67 68.38 17.75 69.31 17.82 70.24 17.88 71.17 17.95 72.1 18.01 73.03 18.08 73.96 18.13 74.89 18.19 75.82 18.26 76.75 18.32 77.68 18.39 78.61 18.45 79.54 18.53 80.47 18.6 81.4 18.66 82.33 18.73 83.26 18.79 84.19 18.86 85.12 18.92 86.05 18.99 86.98 19.05 87.91 19.12 88.84 19.18 89.77 19.25 90.7 19.31 91.63 19.38 92.56 19.43 93.49 19.49"
               id="img-b240eef6-34" />
          </g>
        </g>
      </g>
    </g>
    <g
       class="guide ylabels"
       font-size="2.82"
       font-family="'PT Sans Caption','Helvetica Neue','Helvetica',sans-serif"
       fill="#6C606B"
       id="img-b240eef6-35">
      <text
         x="20.75"
         y="33"
         text-anchor="end"
         dy="0.35em"
         id="img-b240eef6-36">0.000</text>
      <text
         x="20.75"
         y="20"
         text-anchor="end"
         dy="0.35em"
         id="img-b240eef6-37">1.000</text>
      <text
         x="20.75"
         y="14.307216"
         dy="0"
         id="img-b240eef6-38"
         style="text-anchor:end">1.500</text>
      <text
         x="20.75"
         y="7"
         text-anchor="end"
         dy="0.35em"
         id="img-b240eef6-39">2.000</text>
      <text
         x="20.75"
         y="24.478199"
         dy="0"
         id="img-b240eef6-40"
         style="text-anchor:end">0.640</text>
      <text
         x="20.75"
         y="11.51"
         text-anchor="end"
         dy="0.35em"
         id="img-b240eef6-41">1.653</text>
      <text
         x="20.75"
         y="27.469845"
         dy="0"
         id="img-b240eef6-42"
         style="text-anchor:end">0.596</text>
      <text
         x="58.08374"
         y="23.156469"
         dy="0"
         id="img-b240eef6-43"
         style="text-anchor:end">0.641</text>
      <path
         style="fill:none;fill-rule:evenodd;stroke:#a8a8a8;stroke-width:0.14111111;stroke-linecap:butt;stroke-linejoin:miter;stroke-opacity:1;stroke-miterlimit:4;stroke-dasharray:none;marker-start:url(#Arrow1Mstart)"
         d="m 43.387862,24.360189 6.861336,-1.311726"
         id="path4185"
         inkscape:connector-curvature="0" />
    </g>
    <g
       font-size="3.88"
       font-family="'PT Sans','Helvetica Neue','Helvetica',sans-serif"
       fill="#564A55"
       stroke="#000000"
       stroke-opacity="0.000"
       id="img-b240eef6-44">
      <text
         x="8.81"
         y="18"
         text-anchor="middle"
         dy="0.35em"
         transform="rotate(-90, 8.81, 20)"
         id="img-b240eef6-45">Vout(v)</text>
    </g>
  </g>
  <defs
     id="defs50">
    <marker
       inkscape:stockid="Arrow1Mstart"
       orient="auto"
       refY="0.0"
       refX="0.0"
       id="Arrow1Mstart"
       style="overflow:visible"
       inkscape:isstock="true">
      <path
         id="path4197"
         d="M 0.0,0.0 L 5.0,-5.0 L -12.5,0.0 L 5.0,5.0 L 0.0,0.0 z "
         style="fill-rule:evenodd;stroke:#a8a8a8;stroke-width:1pt;stroke-opacity:1;fill:#a8a8a8;fill-opacity:1"
         transform="scale(0.4) translate(10,0)" />
    </marker>
    <marker
       inkscape:stockid="Arrow1Lstart"
       orient="auto"
       refY="0.0"
       refX="0.0"
       id="Arrow1Lstart"
       style="overflow:visible"
       inkscape:isstock="true">
      <path
         id="path4191"
         d="M 0.0,0.0 L 5.0,-5.0 L -12.5,0.0 L 5.0,5.0 L 0.0,0.0 z "
         style="fill-rule:evenodd;stroke:#000000;stroke-width:1pt;stroke-opacity:1;fill:#000000;fill-opacity:1"
         transform="scale(0.8) translate(12.5,0)" />
    </marker>
    <clipPath
       id="img-b240eef6-11">
      <path
         d="M21.75,5 L 100.14 5 100.14 35 21.75 35"
         id="path53" />
    </clipPath>
  </defs>
</svg>
