<?xml version="1.0" encoding="UTF-8" standalone="no"?>
<svg
   xmlns:dc="http://purl.org/dc/elements/1.1/"
   xmlns:cc="http://creativecommons.org/ns#"
   xmlns:rdf="http://www.w3.org/1999/02/22-rdf-syntax-ns#"
   xmlns:svg="http://www.w3.org/2000/svg"
   xmlns="http://www.w3.org/2000/svg"
   xmlns:sodipodi="http://sodipodi.sourceforge.net/DTD/sodipodi-0.dtd"
   xmlns:inkscape="http://www.inkscape.org/namespaces/inkscape"
   version="1.2"
   width="120mm"
   height="80mm"
   viewBox="0 0 120 80"
   stroke="none"
   fill="#000000"
   stroke-width="0.3"
   font-size="3.88"
   id="svg2"
   inkscape:version="0.91 r13725"
   sodipodi:docname="gbs_Vsf.svg">
  <metadata
     id="metadata93">
    <rdf:RDF>
      <cc:Work
         rdf:about="">
        <dc:format>image/svg+xml</dc:format>
        <dc:type
           rdf:resource="http://purl.org/dc/dcmitype/StillImage" />
        <dc:title></dc:title>
      </cc:Work>
    </rdf:RDF>
  </metadata>
  <sodipodi:namedview
     pagecolor="#ffffff"
     bordercolor="#666666"
     borderopacity="1"
     objecttolerance="10"
     gridtolerance="10"
     guidetolerance="10"
     inkscape:pageopacity="0"
     inkscape:pageshadow="2"
     inkscape:window-width="677"
     inkscape:window-height="480"
     id="namedview91"
     showgrid="false"
     inkscape:zoom="0.72907407"
     inkscape:cx="212.59843"
     inkscape:cy="141.73228"
     inkscape:window-x="0"
     inkscape:window-y="23"
     inkscape:window-maximized="0"
     inkscape:current-layer="svg2" />
  <g
     class="plotroot xscalable yscalable"
     id="img-36b1eb7d-1">
    <g
       font-size="3.88"
       font-family="'PT Sans','Helvetica Neue','Helvetica',sans-serif"
       fill="#564A55"
       stroke="#000000"
       stroke-opacity="0.000"
       id="img-36b1eb7d-2">
      <text
         x="63.08"
         y="68.38"
         text-anchor="middle"
         dy="0.6em"
         id="text6">Vg(V))</text>
    </g>
    <g
       class="guide xlabels"
       font-size="2.82"
       font-family="'PT Sans Caption','Helvetica Neue','Helvetica',sans-serif"
       fill="#6C606B"
       id="img-36b1eb7d-3">
      <text
         x="22.05"
         y="62.33"
         text-anchor="middle"
         dy="0.6em"
         id="text9">0</text>
      <text
         x="42.57"
         y="62.33"
         text-anchor="middle"
         dy="0.6em"
         id="text11">1</text>
      <text
         x="63.08"
         y="62.33"
         text-anchor="middle"
         dy="0.6em"
         id="text13">2</text>
      <text
         x="83.6"
         y="62.33"
         text-anchor="middle"
         dy="0.6em"
         id="text15">3</text>
      <text
         x="104.12"
         y="62.33"
         text-anchor="middle"
         dy="0.6em"
         id="text17">4</text>
    </g>
    <g
       class="guide colorkey"
       id="img-36b1eb7d-4">
      <g
         fill="#4C404B"
         font-size="2.82"
         font-family="'PT Sans','Helvetica Neue','Helvetica',sans-serif"
         id="img-36b1eb7d-5">
        <text
           x="109.64"
           y="33.17"
           dy="0.35em"
           id="text21">NwA</text>
        <text
           x="109.64"
           y="36.21"
           dy="0.35em"
           id="text23">NwB</text>
      </g>
      <g
         stroke="#000000"
         stroke-opacity="0.000"
         id="img-36b1eb7d-6">
        <rect
           x="107.12"
           y="32.41"
           width="1.52"
           height="1.52"
           fill="#008000"
           id="rect26" />
        <rect
           x="107.12"
           y="35.45"
           width="1.52"
           height="1.52"
           fill="#00BFFF"
           id="rect28" />
      </g>
      <g
         fill="#362A35"
         font-size="3.88"
         font-family="'PT Sans','Helvetica Neue','Helvetica',sans-serif"
         stroke="#000000"
         stroke-opacity="0.000"
         id="img-36b1eb7d-7">
        <text
           x="107.12"
           y="29.53"
           id="text31">Nw</text>
      </g>
    </g>
    <g
       clip-path="url(#img-36b1eb7d-8)"
       id="g33">
      <g
         id="img-36b1eb7d-9">
        <g
           pointer-events="visible"
           opacity="1"
           fill="#000000"
           fill-opacity="0.000"
           stroke="#000000"
           stroke-opacity="0.000"
           class="guide background"
           id="img-36b1eb7d-10">
          <rect
             x="20.05"
             y="5"
             width="86.07"
             height="56.33"
             id="rect37" />
        </g>
        <g
           class="guide xgridlines yfixed"
           stroke-dasharray="0.5,0.5"
           stroke-width="0.2"
           stroke="#D0D0E0"
           id="img-36b1eb7d-11">
          <path
             fill="none"
             d="M22.05,5 L 22.05 61.33"
             id="path40" />
          <path
             fill="none"
             d="M42.57,5 L 42.57 61.33"
             id="path42" />
          <path
             fill="none"
             d="M63.08,5 L 63.08 61.33"
             id="path44" />
          <path
             fill="none"
             d="M83.6,5 L 83.6 61.33"
             id="path46" />
          <path
             fill="none"
             d="M104.12,5 L 104.12 61.33"
             id="path48" />
        </g>
        <g
           class="guide ygridlines xfixed"
           stroke-dasharray="0.5,0.5"
           stroke-width="0.2"
           stroke="#D0D0E0"
           id="img-36b1eb7d-12">
          <path
             fill="none"
             d="M20.05,53.83 L 106.12 53.83"
             id="path51" />
          <path
             fill="none"
             d="M20.05,30.41 L 106.12 30.41"
             id="path53" />
          <path
             fill="none"
             d="M20.05,7 L 106.12 7"
             id="path55" />
        </g>
        <g
           class="plotpanel"
           id="img-36b1eb7d-13">
          <g
             stroke-width="0.79"
             fill="#000000"
             fill-opacity="0.000"
             class="geometry"
             stroke-dasharray="none"
             stroke="#00BFFF"
             id="img-36b1eb7d-14">
            <path
               fill="none"
               d="M22.25,58.22 L 22.48 58.35 22.75 58.44 23.06 58.52 23.4 58.68 23.76 58.41 24.11 57.67 24.46 56.95 24.79 56.26 25.13 55.58 25.45 54.93 25.77 54.29 26.09 53.67 26.4 53.06 26.7 52.43 27 51.88 27.3 51.44 27.6 51.02 27.9 50.62 28.2 50.24 28.51 49.88 28.82 49.53 29.12 49.2 29.43 48.87 29.74 48.55 30.05 48.19 30.36 47.8 30.67 47.43 30.97 47.07 31.28 46.73 31.59 46.39 31.9 46.06 32.21 45.75 32.52 45.44 32.82 45.12 33.13 44.78 33.44 44.43 33.75 44.09 34.05 43.76 34.36 43.45 34.67 43.14 34.98 42.84 35.28 42.55 35.59 42.27 35.9 41.98 36.21 41.68 36.51 41.37 36.82 41.07 37.13 40.79 37.44 40.5 37.75 40.23 38.05 39.97 38.36 39.71 38.67 39.46 38.98 39.17 39.28 38.8 39.59 38.41 39.9 38.04 40.21 37.68 40.52 37.33 40.82 36.99 41.13 36.66 41.44 36.35 41.75 36.04 42.06 35.72 42.36 35.37 42.67 35.01 42.98 34.66 43.29 34.32 43.6 34 43.9 33.68 44.21 33.37 44.52 33.08 44.83 32.79 45.13 32.45 45.44 32.02 45.75 31.55 46.06 31.11 46.36 30.69 46.67 30.28 46.98 29.89 47.29 29.51 47.6 29.15 47.9 28.79 48.21 28.41 48.52 27.95 48.83 27.47 49.14 27.01 49.44 26.57 49.75 26.15 50.06 25.74 50.37 25.35 50.68 24.97 50.98 24.61 51.29 24.21 51.6 23.72 51.91 23.21 52.21 22.73 52.52 22.26 52.83 21.82 53.14 21.4 53.44 20.99 53.75 20.6 54.06 20.22 54.37 19.86 54.67 19.53 54.98 19.21 55.29 18.9 55.6 18.6 55.91 18.31 56.21 18.03 56.52 17.76 56.83 17.49 57.14 17.23 57.44 16.96 57.75 16.68 58.06 16.4 58.37 16.13 58.68 15.86 58.98 15.6 59.29 15.35 59.6 15.1 59.91 14.86 60.22 14.63 60.52 14.42 60.83 14.25 61.14 14.11 61.45 13.96 61.76 13.82 62.06 13.68 62.37 13.54 62.68 13.4 62.99 13.26 63.29 13.13 63.6 13 63.91 12.89 64.22 12.79 64.52 12.7 64.83 12.6 65.14 12.5 65.45 12.41 65.75 12.31 66.06 12.22 66.37 12.13 66.68 12.08 66.99 12.14 67.29 12.25 67.6 12.36 67.91 12.48 68.22 12.59 68.53 12.71 68.83 12.82 69.14 12.94 69.45 13.06 69.76 13.13 70.07 13.12 70.37 13.07 70.68 13.02 70.99 12.97 71.3 12.91 71.6 12.86 71.91 12.81 72.22 12.76 72.53 12.71 72.83 12.69 73.14 12.76 73.45 12.87 73.76 12.97 74.07 13.08 74.37 13.19 74.68 13.31 74.99 13.42 75.3 13.53 75.61 13.65 75.92 13.77 76.23 13.87 76.54 13.96 76.84 14.06 77.15 14.15 77.45 14.24 77.76 14.34 78.06 14.44 78.36 14.54 78.66 14.64 78.96 14.72 79.26 14.9 79.57 15.18 79.88 15.46 80.2 15.74 80.53 16.01 80.86 16.28 81.2 16.55 81.54 16.81 81.9 17.07 82.25 17.57 82.6 17.97 82.9 18.04 83.17 18.12 83.41 18.23"
               id="path59" />
          </g>
          <g
             stroke-width="0.79"
             fill="#000000"
             fill-opacity="0.000"
             class="geometry"
             stroke-dasharray="none"
             stroke="#008000"
             id="img-36b1eb7d-15">
            <path
               fill="none"
               d="M22.25,58.83 L 22.48 58.96 22.75 59.05 23.06 59.13 23.4 59.33 23.76 59.19 24.11 58.6 24.46 58.03 24.79 57.46 25.13 56.91 25.45 56.36 25.77 55.83 26.09 55.3 26.4 54.77 26.7 54.21 27 53.67 27.3 53.24 27.6 52.82 27.9 52.42 28.2 52.04 28.51 51.68 28.82 51.33 29.12 50.99 29.43 50.67 29.74 50.32 30.05 49.89 30.36 49.42 30.67 48.97 30.97 48.54 31.28 48.13 31.59 47.73 31.9 47.35 32.21 46.98 32.52 46.62 32.82 46.24 33.13 45.81 33.44 45.36 33.75 44.93 34.05 44.52 34.36 44.12 34.67 43.74 34.98 43.37 35.28 43.02 35.59 42.68 35.9 42.29 36.21 41.81 36.51 41.3 36.82 40.81 37.13 40.35 37.44 39.91 37.75 39.48 38.05 39.07 38.36 38.68 38.67 38.3 38.98 37.89 39.28 37.4 39.59 36.89 39.9 36.4 40.21 35.94 40.52 35.49 40.82 35.07 41.13 34.66 41.44 34.27 41.75 33.89 42.06 33.47 42.36 32.96 42.67 32.43 42.98 31.92 43.29 31.43 43.6 30.97 43.9 30.53 44.21 30.11 44.52 29.7 44.83 29.31 45.13 28.88 45.44 28.38 45.75 27.85 46.06 27.35 46.36 26.87 46.67 26.41 46.98 25.98 47.29 25.56 47.6 25.16 47.9 24.77 48.21 24.37 48.52 23.91 48.83 23.44 49.14 22.99 49.44 22.55 49.75 22.14 50.06 21.74 50.37 21.36 50.68 20.99 50.98 20.63 51.29 20.27 51.6 19.9 51.91 19.52 52.21 19.16 52.52 18.82 52.83 18.48 53.14 18.15 53.44 17.84 53.75 17.53 54.06 17.23 54.37 16.92 54.67 16.58 54.98 16.23 55.29 15.89 55.6 15.56 55.91 15.24 56.21 14.92 56.52 14.62 56.83 14.33 57.14 14.05 57.44 13.78 57.75 13.56 58.06 13.35 58.37 13.15 58.68 12.96 58.98 12.76 59.29 12.57 59.6 12.39 59.91 12.21 60.22 12.03 60.52 11.85 60.83 11.69 61.14 11.53 61.45 11.38 61.76 11.22 62.06 11.07 62.37 10.92 62.68 10.77 62.99 10.63 63.29 10.48 63.6 10.35 63.91 10.23 64.22 10.11 64.52 10 64.83 9.89 65.14 9.78 65.45 9.67 65.75 9.57 66.06 9.46 66.37 9.36 66.68 9.27 66.99 9.21 67.29 9.16 67.6 9.12 67.91 9.07 68.22 9.03 68.53 8.98 68.83 8.94 69.14 8.89 69.45 8.85 69.76 8.81 70.07 8.78 70.37 8.76 70.68 8.74 70.99 8.72 71.3 8.7 71.6 8.68 71.91 8.66 72.22 8.64 72.53 8.63 72.83 8.62 73.14 8.65 73.45 8.69 73.76 8.74 74.07 8.78 74.37 8.83 74.68 8.87 74.99 8.92 75.3 8.97 75.61 9.01 75.92 9.07 76.23 9.13 76.54 9.18 76.84 9.23 77.15 9.28 77.45 9.33 77.76 9.39 78.06 9.44 78.36 9.49 78.66 9.55 78.96 9.57 79.26 9.66 79.57 9.84 79.88 10.02 80.2 10.19 80.53 10.36 80.86 10.52 81.2 10.68 81.54 10.84 81.9 11 82.25 11.41 82.6 11.79 82.9 11.85 83.17 11.94 83.41 12.05"
               id="path62" />
          </g>
        </g>
      </g>
    </g>
    <g
       class="guide ylabels"
       font-size="2.82"
       font-family="'PT Sans Caption','Helvetica Neue','Helvetica',sans-serif"
       fill="#6C606B"
       id="img-36b1eb7d-16">
      <text
         x="19.05"
         y="53.83"
         text-anchor="end"
         dy="0.35em"
         id="text65">10<tspan
   style="dominant-baseline:inherit"
   dy="-1.7225"
   font-size="83.3333%"
   id="tspan67">-6</tspan>
<tspan
   style="dominant-baseline:inherit"
   dy="1.4355"
   id="tspan69" />
</text>
      <text
         x="19.05"
         y="30.41"
         text-anchor="end"
         dy="0.35em"
         id="text71">10<tspan
   style="dominant-baseline:inherit"
   dy="-1.7225"
   font-size="83.3333%"
   id="tspan73">-5</tspan>
<tspan
   style="dominant-baseline:inherit"
   dy="1.4355"
   id="tspan75" />
</text>
      <text
         x="19.05"
         y="7"
         text-anchor="end"
         dy="0.35em"
         id="text77">10<tspan
   style="dominant-baseline:inherit"
   dy="-1.7225"
   font-size="83.3333%"
   id="tspan79">-4</tspan>
<tspan
   style="dominant-baseline:inherit"
   dy="1.4355"
   id="tspan81" />
</text>
    </g>
    <g
       font-size="3.88"
       font-family="'PT Sans','Helvetica Neue','Helvetica',sans-serif"
       fill="#564A55"
       stroke="#000000"
       stroke-opacity="0.000"
       id="img-36b1eb7d-17">
      <text
         x="8.81"
         y="31.17"
         text-anchor="middle"
         dy="0.35em"
         transform="rotate(-90, 8.81, 33.17)"
         id="text84">Transconductance(dA/dV)</text>
    </g>
  </g>
  <defs
     id="defs86">
    <clipPath
       id="img-36b1eb7d-8">
      <path
         d="M20.05,5 L 106.12 5 106.12 61.33 20.05 61.33"
         id="path89" />
    </clipPath>
  </defs>
</svg>
