<?xml version="1.0" encoding="UTF-8" standalone="no"?>
<svg
   xmlns:dc="http://purl.org/dc/elements/1.1/"
   xmlns:cc="http://creativecommons.org/ns#"
   xmlns:rdf="http://www.w3.org/1999/02/22-rdf-syntax-ns#"
   xmlns:svg="http://www.w3.org/2000/svg"
   xmlns="http://www.w3.org/2000/svg"
   xmlns:sodipodi="http://sodipodi.sourceforge.net/DTD/sodipodi-0.dtd"
   xmlns:inkscape="http://www.inkscape.org/namespaces/inkscape"
   version="1.2"
   width="120mm"
   height="80mm"
   viewBox="0 0 120 80"
   stroke="none"
   fill="#000000"
   stroke-width="0.3"
   font-size="3.88"
   id="svg2"
   inkscape:version="0.91 r13725"
   sodipodi:docname="Id_Vsf.svg">
  <metadata
     id="metadata97">
    <rdf:RDF>
      <cc:Work
         rdf:about="">
        <dc:format>image/svg+xml</dc:format>
        <dc:type
           rdf:resource="http://purl.org/dc/dcmitype/StillImage" />
        <dc:title></dc:title>
      </cc:Work>
    </rdf:RDF>
  </metadata>
  <sodipodi:namedview
     pagecolor="#ffffff"
     bordercolor="#666666"
     borderopacity="1"
     objecttolerance="10"
     gridtolerance="10"
     guidetolerance="10"
     inkscape:pageopacity="0"
     inkscape:pageshadow="2"
     inkscape:window-width="1043"
     inkscape:window-height="662"
     id="namedview95"
     showgrid="false"
     inkscape:zoom="0.73768985"
     inkscape:cx="206.09259"
     inkscape:cy="60.154577"
     inkscape:window-x="0"
     inkscape:window-y="23"
     inkscape:window-maximized="0"
     inkscape:current-layer="img-66bee3b0-1" />
  <g
     class="plotroot xscalable yscalable"
     id="img-66bee3b0-1">
    <g
       font-size="3.88"
       font-family="'PT Sans','Helvetica Neue','Helvetica',sans-serif"
       fill="#564A55"
       stroke="#000000"
       stroke-opacity="0.000"
       id="img-66bee3b0-2">
      <text
         x="63.08"
         y="68.38"
         text-anchor="middle"
         dy="0.6em"
         id="text6">Vg(V)</text>
    </g>
    <g
       class="guide xlabels"
       font-size="2.82"
       font-family="'PT Sans Caption','Helvetica Neue','Helvetica',sans-serif"
       fill="#6C606B"
       id="img-66bee3b0-3">
      <text
         x="32.31"
         y="62.33"
         text-anchor="middle"
         dy="0.6em"
         id="text11">0.0</text>
      <text
         x="52.82"
         y="62.33"
         text-anchor="middle"
         dy="0.6em"
         id="text13">1.0</text>
      <text
         x="73.34"
         y="62.33"
         text-anchor="middle"
         dy="0.6em"
         id="text15">2.0</text>
      <text
         x="93.86"
         y="62.33"
         text-anchor="middle"
         dy="0.6em"
         id="text17">3.0</text>
    </g>
    <g
       class="guide colorkey"
       id="img-66bee3b0-4">
      <g
         fill="#4C404B"
         font-size="2.82"
         font-family="'PT Sans','Helvetica Neue','Helvetica',sans-serif"
         id="img-66bee3b0-5">
        <text
           x="109.64"
           y="33.17"
           dy="0.35em"
           id="text23">NwA</text>
        <text
           x="109.64"
           y="39.950726"
           dy="0"
           id="text25">NwB</text>
      </g>
      <g
         stroke="#000000"
         stroke-opacity="0.000"
         id="img-66bee3b0-6">
        <rect
           x="107.12"
           y="32.41"
           width="1.52"
           height="1.52"
           fill="#008000"
           id="rect28" />
        <rect
           x="107.12"
           y="38.411098"
           width="1.52"
           height="1.52"
           id="rect30"
           style="fill:#00bfff" />
      </g>
      <g
         font-size="3.88"
         id="img-66bee3b0-7"
         transform="translate(0,-2.1714715)"
         style="font-size:3.88000011px;font-family:'PT Sans', 'Helvetica Neue', Helvetica, sans-serif;fill:#362a35;stroke:#000000;stroke-opacity:0">
        <text
           x="107.12"
           y="29.530001"
           id="text33">Nw</text>
      </g>
    </g>
    <g
       clip-path="url(#img-66bee3b0-8)"
       id="g35">
      <g
         id="img-66bee3b0-9">
        <g
           pointer-events="visible"
           opacity="1"
           fill="#000000"
           fill-opacity="0.000"
           stroke="#000000"
           stroke-opacity="0.000"
           class="guide background"
           id="img-66bee3b0-10">
          <rect
             x="20.05"
             y="5"
             width="86.07"
             height="56.33"
             id="rect39" />
        </g>
        <g
           class="guide xgridlines yfixed"
           stroke-dasharray="0.5,0.5"
           stroke-width="0.2"
           stroke="#D0D0E0"
           id="img-66bee3b0-11">
          <path
             fill="none"
             d="M32.31,5 L 32.31 61.33"
             id="path44" />
          <path
             fill="none"
             d="M52.82,5 L 52.82 61.33"
             id="path46" />
          <path
             fill="none"
             d="M73.34,5 L 73.34 61.33"
             id="path48" />
          <path
             fill="none"
             d="M93.86,5 L 93.86 61.33"
             id="path50" />
        </g>
        <g
           class="guide ygridlines xfixed"
           stroke-dasharray="0.5,0.5"
           stroke-width="0.2"
           stroke="#D0D0E0"
           id="img-66bee3b0-12">
          <path
             fill="none"
             d="M20.05,40.92 L 106.12 40.92"
             id="path55" />
          <path
             fill="none"
             d="M20.05,23.96 L 106.12 23.96"
             id="path57" />
          <path
             fill="none"
             d="M20.05,7 L 106.12 7"
             id="path59" />
        </g>
        <g
           class="plotpanel"
           id="img-66bee3b0-13">
          <g
             stroke-width="0.79"
             fill="#000000"
             fill-opacity="0.000"
             class="geometry"
             stroke-dasharray="none"
             stroke="#00BFFF"
             id="img-66bee3b0-14">
            <path
               fill="none"
               d="M32.31,59.33 L 32.51 59.08 32.74 58.79 33.01 58.47 33.32 58.12 33.66 57.76 34.02 57.38 34.37 56.99 34.71 56.61 35.05 56.23 35.39 55.84 35.71 55.46 36.03 55.09 36.35 54.71 36.65 54.34 36.96 53.97 37.26 53.61 37.56 53.25 37.86 52.88 38.16 52.52 38.46 52.16 38.77 51.81 39.07 51.46 39.38 51.11 39.69 50.76 40 50.42 40.31 50.09 40.62 49.75 40.92 49.42 41.23 49.09 41.54 48.77 41.85 48.45 42.16 48.13 42.47 47.81 42.77 47.5 43.08 47.2 43.39 46.89 43.7 46.59 44.01 46.29 44.31 46 44.62 45.7 44.93 45.41 45.24 45.12 45.54 44.83 45.85 44.55 46.16 44.27 46.47 43.99 46.77 43.72 47.08 43.44 47.39 43.17 47.7 42.9 48 42.64 48.31 42.37 48.62 42.11 48.93 41.85 49.24 41.59 49.54 41.34 49.85 41.08 50.16 40.82 50.47 40.57 50.78 40.31 51.08 40.05 51.39 39.79 51.7 39.54 52.01 39.28 52.31 39.03 52.62 38.78 52.93 38.52 53.24 38.27 53.55 38.01 53.85 37.76 54.16 37.51 54.47 37.26 54.78 37.01 55.09 36.76 55.39 36.51 55.7 36.26 56.01 36.01 56.32 35.75 56.62 35.5 56.93 35.24 57.24 34.98 57.55 34.72 57.86 34.46 58.16 34.2 58.47 33.94 58.78 33.68 59.09 33.41 59.4 33.14 59.7 32.87 60.01 32.6 60.32 32.33 60.63 32.06 60.93 31.78 61.24 31.51 61.55 31.24 61.86 30.97 62.16 30.69 62.47 30.41 62.78 30.12 63.09 29.84 63.39 29.55 63.7 29.27 64.01 28.98 64.32 28.69 64.63 28.41 64.93 28.12 65.24 27.84 65.55 27.56 65.86 27.28 66.16 27.01 66.47 26.73 66.78 26.46 67.09 26.19 67.4 25.93 67.7 25.67 68.01 25.41 68.32 25.15 68.63 24.89 68.93 24.64 69.24 24.38 69.55 24.13 69.86 23.89 70.17 23.64 70.47 23.4 70.78 23.16 71.09 22.92 71.4 22.69 71.71 22.46 72.01 22.23 72.32 22.01 72.63 21.79 72.94 21.58 73.25 21.37 73.55 21.16 73.86 20.95 74.17 20.75 74.47 20.55 74.78 20.36 75.09 20.17 75.4 19.98 75.71 19.79 76.01 19.61 76.32 19.43 76.63 19.25 76.94 19.08 77.25 18.91 77.55 18.74 77.86 18.58 78.17 18.43 78.48 18.28 78.79 18.13 79.09 17.99 79.4 17.85 79.71 17.72 80.02 17.59 80.32 17.47 80.63 17.34 80.94 17.22 81.25 17.1 81.56 16.98 81.86 16.86 82.17 16.74 82.48 16.62 82.79 16.51 83.09 16.39 83.4 16.28 83.71 16.17 84.02 16.07 84.32 15.96 84.63 15.86 84.94 15.76 85.25 15.67 85.56 15.57 85.87 15.48 86.18 15.39 86.49 15.3 86.79 15.21 87.1 15.13 87.41 15.05 87.71 14.97 88.01 14.89 88.32 14.81 88.62 14.74 88.92 14.67 89.22 14.6 89.52 14.53 89.83 14.46 90.14 14.39 90.46 14.32 90.79 14.26 91.12 14.19 91.46 14.13 91.8 14.07 92.15 14.01 92.51 13.95 92.85 13.89 93.16 13.84 93.43 13.8 93.67 13.76 93.86 13.73"
               id="path63" />
          </g>
          <g
             stroke-width="0.79"
             fill="#000000"
             fill-opacity="0.000"
             class="geometry"
             stroke-dasharray="none"
             stroke="#008000"
             id="img-66bee3b0-15">
            <path
               fill="none"
               d="M32.31,57.82 L 32.51 57.62 32.74 57.4 33.01 57.15 33.32 56.87 33.66 56.58 34.02 56.27 34.37 55.97 34.71 55.66 35.05 55.36 35.39 55.06 35.71 54.76 36.03 54.46 36.35 54.17 36.65 53.87 36.96 53.58 37.26 53.29 37.56 53 37.86 52.7 38.16 52.41 38.46 52.11 38.77 51.81 39.07 51.52 39.38 51.22 39.69 50.93 40 50.63 40.31 50.34 40.62 50.05 40.92 49.75 41.23 49.45 41.54 49.16 41.85 48.86 42.16 48.56 42.47 48.27 42.77 47.98 43.08 47.68 43.39 47.39 43.7 47.1 44.01 46.81 44.31 46.51 44.62 46.22 44.93 45.92 45.24 45.63 45.54 45.34 45.85 45.05 46.16 44.76 46.47 44.47 46.77 44.18 47.08 43.88 47.39 43.58 47.7 43.28 48 42.98 48.31 42.68 48.62 42.38 48.93 42.09 49.24 41.79 49.54 41.49 49.85 41.19 50.16 40.88 50.47 40.58 50.78 40.27 51.08 39.96 51.39 39.66 51.7 39.35 52.01 39.05 52.31 38.74 52.62 38.44 52.93 38.13 53.24 37.82 53.55 37.5 53.85 37.19 54.16 36.87 54.47 36.56 54.78 36.24 55.09 35.93 55.39 35.62 55.7 35.3 56.01 34.99 56.32 34.67 56.62 34.35 56.93 34.03 57.24 33.71 57.55 33.39 57.86 33.07 58.16 32.75 58.47 32.43 58.78 32.11 59.09 31.8 59.4 31.48 59.7 31.16 60.01 30.84 60.32 30.53 60.63 30.21 60.93 29.9 61.24 29.59 61.55 29.28 61.86 28.97 62.16 28.66 62.47 28.36 62.78 28.06 63.09 27.76 63.39 27.46 63.7 27.16 64.01 26.87 64.32 26.58 64.63 26.3 64.93 26.01 65.24 25.73 65.55 25.44 65.86 25.16 66.16 24.88 66.47 24.61 66.78 24.33 67.09 24.06 67.4 23.79 67.7 23.52 68.01 23.25 68.32 22.99 68.63 22.73 68.93 22.48 69.24 22.23 69.55 21.98 69.86 21.74 70.17 21.5 70.47 21.27 70.78 21.03 71.09 20.81 71.4 20.58 71.71 20.36 72.01 20.14 72.32 19.92 72.63 19.71 72.94 19.5 73.25 19.29 73.55 19.09 73.86 18.89 74.17 18.69 74.47 18.5 74.78 18.3 75.09 18.12 75.4 17.93 75.71 17.75 76.01 17.56 76.32 17.38 76.63 17.21 76.94 17.03 77.25 16.86 77.55 16.69 77.86 16.53 78.17 16.37 78.48 16.21 78.79 16.05 79.09 15.9 79.4 15.75 79.71 15.6 80.02 15.45 80.32 15.3 80.63 15.16 80.94 15.02 81.25 14.89 81.56 14.75 81.86 14.62 82.17 14.49 82.48 14.36 82.79 14.23 83.09 14.11 83.4 13.99 83.71 13.87 84.02 13.75 84.32 13.63 84.63 13.52 84.94 13.41 85.25 13.3 85.56 13.19 85.87 13.09 86.18 12.98 86.49 12.88 86.79 12.78 87.1 12.69 87.41 12.59 87.71 12.5 88.01 12.41 88.32 12.32 88.62 12.23 88.92 12.15 89.22 12.07 89.52 11.98 89.83 11.9 90.14 11.82 90.46 11.74 90.79 11.66 91.12 11.58 91.46 11.5 91.8 11.43 92.15 11.35 92.51 11.27 92.85 11.2 93.16 11.14 93.43 11.08 93.67 11.03 93.86 10.99"
               id="path66" />
          </g>
        </g>
      </g>
    </g>
    <g
       class="guide ylabels"
       font-size="2.82"
       font-family="'PT Sans Caption','Helvetica Neue','Helvetica',sans-serif"
       fill="#6C606B"
       id="img-66bee3b0-16">
      <text
         x="19.049999"
         y="40.919998"
         dy="0"
         id="text69"
         style="text-anchor:end">10\textsuperscript{<tspan
   style="font-size:83.33329558%"
   dy="-1.7225"
   font-size="83.3333%"
   id="tspan71">-6}</tspan>
<tspan
   dy="1.4355"
   id="tspan73" />
</text>
      <text
         x="19.049999"
         y="23.959999"
         dy="0"
         id="text75"
         style="text-anchor:end">10\textsuperscript{<tspan
   style="font-size:83.33329558%"
   dy="-1.7225"
   font-size="83.3333%"
   id="tspan77">-5}</tspan>
<tspan
   dy="1.4355"
   id="tspan79" />
</text>
      <text
         x="19.049999"
         y="7"
         dy="0"
         id="text81"
         style="text-anchor:end">10\textsuperscript{<tspan
   style="font-size:83.33329558%"
   dy="-1.7225"
   font-size="83.3333%"
   id="tspan83">-4}</tspan>
</text>
    </g>
    <g
       font-size="3.88"
       id="img-66bee3b0-17"
       transform="matrix(0.01803319,0.99983739,-0.99983739,0.01803319,12.959123,22.439735)"
       style="font-size:3.88000011px;font-family:'PT Sans', 'Helvetica Neue', Helvetica, sans-serif;fill:#564a55;stroke:#000000;stroke-opacity:0">
      <text
         x="8.8100004"
         y="31.17"
         dy="0"
         transform="matrix(0,-1,1,0,-24.36,41.98)"
         id="text88"
         style="text-anchor:middle">Id(A)</text>
    </g>
  </g>
  <defs
     id="defs90">
    <clipPath
       id="img-66bee3b0-8">
      <path
         d="M20.05,5 L 106.12 5 106.12 61.33 20.05 61.33"
         id="path93" />
    </clipPath>
  </defs>
</svg>
