<?xml version="1.0" encoding="UTF-8" standalone="no"?>
<svg
   xmlns:osb="http://www.openswatchbook.org/uri/2009/osb"
   xmlns:dc="http://purl.org/dc/elements/1.1/"
   xmlns:cc="http://creativecommons.org/ns#"
   xmlns:rdf="http://www.w3.org/1999/02/22-rdf-syntax-ns#"
   xmlns:svg="http://www.w3.org/2000/svg"
   xmlns="http://www.w3.org/2000/svg"
   xmlns:sodipodi="http://sodipodi.sourceforge.net/DTD/sodipodi-0.dtd"
   xmlns:inkscape="http://www.inkscape.org/namespaces/inkscape"
   width="1000.0"
   height="508.253094911"
   id="svg4409"
   version="1.1"
   inkscape:version="0.91 r13725"
   sodipodi:docname="NMS.svg">
  <metadata
     id="metadata4661">
    <rdf:RDF>
      <cc:Work
         rdf:about="">
        <dc:format>image/svg+xml</dc:format>
        <dc:type
           rdf:resource="http://purl.org/dc/dcmitype/StillImage" />
        <dc:title></dc:title>
      </cc:Work>
    </rdf:RDF>
  </metadata>
  <defs
     id="defs4659">
    <marker
       inkscape:stockid="TriangleInM"
       orient="auto"
       refY="0.0"
       refX="0.0"
       id="TriangleInM"
       style="overflow:visible"
       inkscape:isstock="true">
      <path
         id="path6075"
         d="M 5.77,0.0 L -2.88,5.0 L -2.88,-5.0 L 5.77,0.0 z "
         style="fill-rule:evenodd;stroke:#000000;stroke-width:1pt;stroke-opacity:1;fill:#000000;fill-opacity:1"
         transform="scale(-0.4)" />
    </marker>
    <marker
       inkscape:stockid="EmptyTriangleInL"
       orient="auto"
       refY="0.0"
       refX="0.0"
       id="EmptyTriangleInL"
       style="overflow:visible"
       inkscape:isstock="true">
      <path
         id="path6090"
         d="M 5.77,0.0 L -2.88,5.0 L -2.88,-5.0 L 5.77,0.0 z "
         style="fill-rule:evenodd;fill:#ffffff;stroke:#000000;stroke-width:1pt;stroke-opacity:1"
         transform="scale(-0.8) translate(-6,0)" />
    </marker>
    <marker
       inkscape:stockid="Arrow2Mstart"
       orient="auto"
       refY="0.0"
       refX="0.0"
       id="Arrow2Mstart"
       style="overflow:visible"
       inkscape:isstock="true">
      <path
         id="path5963"
         style="fill-rule:evenodd;stroke-width:0.625;stroke-linejoin:round;stroke:#000000;stroke-opacity:1;fill:#000000;fill-opacity:1"
         d="M 8.7185878,4.0337352 L -2.2072895,0.016013256 L 8.7185884,-4.0017078 C 6.9730900,-1.6296469 6.9831476,1.6157441 8.7185878,4.0337352 z "
         transform="scale(0.6) translate(0,0)" />
    </marker>
    <marker
       inkscape:stockid="Arrow1Mstart"
       orient="auto"
       refY="0.0"
       refX="0.0"
       id="Arrow1Mstart"
       style="overflow:visible"
       inkscape:isstock="true">
      <path
         id="path5945"
         d="M 0.0,0.0 L 5.0,-5.0 L -12.5,0.0 L 5.0,5.0 L 0.0,0.0 z "
         style="fill-rule:evenodd;stroke:#000000;stroke-width:1pt;stroke-opacity:1;fill:#000000;fill-opacity:1"
         transform="scale(0.4) translate(10,0)" />
    </marker>
    <marker
       inkscape:stockid="Arrow1Lstart"
       orient="auto"
       refY="0.0"
       refX="0.0"
       id="marker6287"
       style="overflow:visible"
       inkscape:isstock="true">
      <path
         id="path6289"
         d="M 0.0,0.0 L 5.0,-5.0 L -12.5,0.0 L 5.0,5.0 L 0.0,0.0 z "
         style="fill-rule:evenodd;stroke:#000000;stroke-width:1pt;stroke-opacity:1;fill:#000000;fill-opacity:1"
         transform="scale(0.8) translate(12.5,0)" />
    </marker>
    <marker
       inkscape:stockid="Arrow1Lstart"
       orient="auto"
       refY="0.0"
       refX="0.0"
       id="marker6201"
       style="overflow:visible"
       inkscape:isstock="true">
      <path
         id="path6203"
         d="M 0.0,0.0 L 5.0,-5.0 L -12.5,0.0 L 5.0,5.0 L 0.0,0.0 z "
         style="fill-rule:evenodd;stroke:#000000;stroke-width:1pt;stroke-opacity:1;fill:#000000;fill-opacity:1"
         transform="scale(0.8) translate(12.5,0)" />
    </marker>
    <marker
       inkscape:stockid="Arrow1Lstart"
       orient="auto"
       refY="0.0"
       refX="0.0"
       id="Arrow1Lstart"
       style="overflow:visible"
       inkscape:isstock="true">
      <path
         id="path5939"
         d="M 0.0,0.0 L 5.0,-5.0 L -12.5,0.0 L 5.0,5.0 L 0.0,0.0 z "
         style="fill-rule:evenodd;stroke:#000000;stroke-width:1pt;stroke-opacity:1;fill:#000000;fill-opacity:1"
         transform="scale(0.8) translate(12.5,0)" />
    </marker>
    <linearGradient
       id="linearGradient4428"
       osb:paint="solid">
      <stop
         style="stop-color:#ffffff;stop-opacity:1;"
         offset="0"
         id="stop4430" />
    </linearGradient>
  </defs>
  <sodipodi:namedview
     pagecolor="#ffffff"
     bordercolor="#666666"
     borderopacity="1"
     objecttolerance="10"
     gridtolerance="10"
     guidetolerance="10"
     inkscape:pageopacity="0"
     inkscape:pageshadow="2"
     inkscape:window-width="1280"
     inkscape:window-height="687"
     id="namedview4657"
     showgrid="false"
     inkscape:zoom="0.69715662"
     inkscape:cx="677.46753"
     inkscape:cy="370.29217"
     inkscape:window-x="0"
     inkscape:window-y="1"
     inkscape:window-maximized="1"
     inkscape:current-layer="g4413" />
  <desc
     id="desc4411">Created by CircuitLab https://www.circuitlab.com/</desc>
  <g
     transform="matrix(1.37551581843,0,0,1.37551581843,-3574.96561211,-1680.19257222)"
     id="g4413">
    <path
       style="stroke-linecap: round; stroke-miterlimit: 6;"
       fill="none"
       stroke="#000000"
       d="M15.624981,28.12499L15.624981,71.87502"
       stroke-width="2"
       stroke-linecap="round"
       stroke-miterlimit="6"
       transform="matrix(-1,0,0,1,2675,1425)"
       id="path4415" />
    <path
       style="stroke-linecap: round; stroke-miterlimit: 6;"
       fill="none"
       stroke="#000000"
       d="M0,50L15.624981,50"
       stroke-width="2"
       stroke-linecap="round"
       stroke-miterlimit="6"
       transform="matrix(-1,0,0,1,2675,1425)"
       id="path4417" />
    <path
       style="stroke-linecap: round; stroke-miterlimit: 4;"
       fill="none"
       stroke="#000000"
       d="M50,0L50,30L25,30"
       stroke-width="2"
       stroke-linecap="round"
       stroke-miterlimit="4"
       transform="matrix(-1,0,0,1,2675,1425)"
       id="path4419" />
    <path
       style="stroke-linecap: round; stroke-miterlimit: 4;"
       fill="none"
       stroke="#000000"
       d="M50,100L50,70L50,50L25,50"
       stroke-width="2"
       stroke-linecap="round"
       stroke-miterlimit="4"
       transform="matrix(-1,0,0,1,2675,1425)"
       id="path4421" />
    <path
       style="stroke-linecap: round; stroke-miterlimit: 4;"
       fill="none"
       stroke="#000000"
       d="M50,70L25,70"
       stroke-width="2"
       stroke-linecap="round"
       stroke-miterlimit="4"
       transform="matrix(-1,0,0,1,2675,1425)"
       id="path4423" />
    <path
       style="stroke-linecap: square; stroke-miterlimit: 4;"
       fill="none"
       stroke="#000000"
       d="M25,64L25,76"
       stroke-width="4"
       stroke-linecap="square"
       stroke-miterlimit="4"
       transform="matrix(-1,0,0,1,2675,1425)"
       id="path4425" />
    <path
       style="stroke-linecap: square; stroke-miterlimit: 4;"
       fill="none"
       stroke="#000000"
       d="M25,44L25,56"
       stroke-width="4"
       stroke-linecap="square"
       stroke-miterlimit="4"
       transform="matrix(-1,0,0,1,2675,1425)"
       id="path4427" />
    <path
       style="stroke-linecap: square; stroke-miterlimit: 4;"
       fill="none"
       stroke="#000000"
       d="M25,24L25,36"
       stroke-width="4"
       stroke-linecap="square"
       stroke-miterlimit="4"
       transform="matrix(-1,0,0,1,2675,1425)"
       id="path4429" />
    <path
       fill="#000000"
       stroke="none"
       d="M45,45.93739C39.922916,48.47659,38.397916,48.47659,30.781249000000003,49.999810000000004C38.397916,51.52319000000001,39.922916,51.52319000000001,45,54.06242C43.985416,51.015390000000004,43.985416,48.984190000000005,45,45.93739"
       transform="matrix(-1,0,0,1,2675,1425)"
       id="path4431" />
    <text
       style="font-family: Arial; font-size: 16px; font-weight: bold; text-anchor: end;"
       x="0"
       y="0"
       text-anchor="end"
       stroke="none"
       fill="#000000"
       transform="translate(2618.75,1475)"
       id="text4433">
      <tspan
         dy="7.2"
         id="tspan4435" />
    </text>
    <path
       style="stroke-linecap: round; stroke-miterlimit: 6;"
       fill="#ffffff"
       stroke="#000000"
       d="M50,50C50,36.19373,38.806233,25,25,25C11.193742,25,0,36.19373,0,50C0,63.80632,11.193742,75,25,75C38.806233,75,50,63.80632,50,50"
       stroke-width="2"
       stroke-linecap="round"
       stroke-miterlimit="6"
       transform="translate(2600,1225)"
       id="path4437" />
    <path
       style="stroke-linecap: round; stroke-miterlimit: 6;"
       fill="none"
       stroke="#000000"
       d="M25,0.00002L25,25"
       stroke-width="2"
       stroke-linecap="round"
       stroke-miterlimit="6"
       transform="translate(2600,1225)"
       id="path4439" />
    <path
       style="stroke-linecap: round; stroke-miterlimit: 6;"
       fill="none"
       stroke="#000000"
       d="M25,100L25,75"
       stroke-width="2"
       stroke-linecap="round"
       stroke-miterlimit="6"
       transform="translate(2600,1225)"
       id="path4441" />
    <path
       style="stroke-linecap: round; stroke-miterlimit: 6;"
       fill="none"
       stroke="#000000"
       d="M25,56.49892L25,35.05936"
       stroke-width="1.49310875"
       stroke-linecap="round"
       stroke-miterlimit="6"
       transform="translate(2600,1225)"
       id="path4443" />
    <path
       fill="#000000"
       stroke="none"
       d="M20.099545,48.53562C23.162335,54.66122,23.162335,56.49892,25,65.68722C26.837665,56.49892,26.837665,54.66122,29.900455,48.53562C26.225105,49.76072,23.774885,49.76072,20.099545,48.53562"
       transform="translate(2600,1225)"
       id="path4445" />
    <text
       style="font-family: Arial; font-size: 16px; font-weight: bold; text-anchor: start;"
       x="0"
       y="0"
       id="text4447"
       text-anchor="start"
       stroke="none"
       fill="#000000"
       transform="translate(2656.25,1275)">
      <tspan
         dy="7.2"
         id="tspan4449">Ibias</tspan>
    </text>
    <path
       style="stroke-linecap: round; stroke-miterlimit: 6;"
       fill="none"
       stroke="#000000"
       d="M25,20L25,0"
       stroke-width="2"
       stroke-linecap="round"
       stroke-miterlimit="6"
       transform="translate(2600,1550)"
       id="path4451" />
    <path
       style="stroke-linecap: round; stroke-linejoin: round; stroke-miterlimit: 6;"
       fill="#ffffff"
       stroke="#000000"
       d="M5,20L25,40L45,20Z"
       stroke-width="2"
       stroke-linecap="round"
       stroke-linejoin="round"
       stroke-miterlimit="6"
       transform="translate(2600,1550)"
       id="path4453" />
    <path
       style="stroke-linecap: round;"
       fill="none"
       stroke="#000000"
       d="M 2625 1525 L 2625 1550"
       stroke-width="2"
       stroke-linecap="round"
       class="cl_wire"
       id="path4455" />
    <path
       style="stroke-linecap: round;"
       fill="none"
       stroke="#000000"
       d="M 2600 1225 L 2650 1225"
       stroke-width="2"
       stroke-linecap="round"
       class="cl_wire"
       id="path4457" />
    <path
       style="stroke-linecap: round;"
       fill="none"
       stroke="#000000"
       d="M 2625 1350 L 2825 1350"
       stroke-width="2"
       stroke-linecap="round"
       class="cl_wire"
       id="path4459" />
    <text
       style="font-family: Arial; font-size: 16px; font-weight: bold; text-anchor: start; font-style: normal;"
       x="0"
       y="0"
       text-anchor="start"
       stroke="none"
       fill="#000000"
       font-style="normal"
       transform="translate(2650,1434.5)"
       id="text4461">
      <tspan
         dy="7.2"
         id="tspan4463">SiNW</tspan>
    </text>
    <path
       style="stroke-linecap: round; stroke-miterlimit: 6;"
       fill="#ffffff"
       stroke="#000000"
       d="M137.5,75L12.5,12.5L12.5,137.5L137.5,75Z"
       stroke-width="2"
       stroke-linecap="round"
       stroke-miterlimit="6"
       transform="translate(2825,1300)"
       id="path4465" />
    <path
       fill="#000000"
       stroke="none"
       d="M20.241317,49.30424L20.241317,51.00004L36.397536,51.00004L36.397536,49.30424L20.241317,49.30424"
       transform="translate(2825,1300)"
       id="path4467" />
    <path
       fill="#000000"
       stroke="none"
       d="M29.136487,91.78334L27.440701,91.78334L27.440701,99.15232L20.133404,99.15232L20.133404,100.84812L27.440701,100.84812L27.440701,108.21702L29.136487,108.21702L29.136487,100.84812L36.443785,100.84812L36.443785,99.15232L29.136487,99.15232L29.136487,91.78334"
       transform="translate(2825,1300)"
       id="path4469" />
    <path
       style="stroke-linecap: round; stroke-miterlimit: 6;"
       fill="none"
       stroke="#000000"
       d="M150,75L137.5,75"
       stroke-width="2"
       stroke-linecap="round"
       stroke-miterlimit="6"
       transform="translate(2825,1300)"
       id="path4471" />
    <path
       style="stroke-linecap: round; stroke-miterlimit: 6;"
       fill="none"
       stroke="#000000"
       d="M0,100L12.5,100"
       stroke-width="2"
       stroke-linecap="round"
       stroke-miterlimit="6"
       transform="translate(2825,1300)"
       id="path4473" />
    <path
       style="stroke-linecap: round; stroke-miterlimit: 6;"
       fill="none"
       stroke="#000000"
       d="M12.5,50L0,50"
       stroke-width="2"
       stroke-linecap="round"
       stroke-miterlimit="6"
       transform="translate(2825,1300)"
       id="path4475" />
    <text
       style="font-family: Arial; font-size: 16px; font-weight: bold; text-anchor: start;"
       x="0"
       y="0"
       text-anchor="start"
       stroke="none"
       fill="#000000"
       transform="translate(2862.5,1375)"
       id="text4477">
      <tspan
         dy="7.2"
         id="tspan4479" />
    </text>
    <path
       style="stroke-linecap: round; stroke-miterlimit: 6;"
       fill="none"
       stroke="#000000"
       d="M25,21.87499L25,0"
       stroke-width="2"
       stroke-linecap="round"
       stroke-miterlimit="6"
       transform="matrix(0,1,-1,0,2925,1225)"
       id="path4481" />
    <path
       style="stroke-linecap: round; stroke-miterlimit: 6;"
       fill="none"
       stroke="#000000"
       d="M25,78.12502L25,100"
       stroke-width="2"
       stroke-linecap="round"
       stroke-miterlimit="6"
       transform="matrix(0,1,-1,0,2925,1225)"
       id="path4483" />
    <path
       style="stroke-linecap: round; stroke-miterlimit: 6;"
       fill="none"
       stroke="#000000"
       d="M25,21.87499L14.062504,26.56249L35.937495,35.93748L14.062504,45.31248L35.937495,54.68752L14.062504,64.06252L35.937495,73.43752L25,78.12502"
       stroke-width="2"
       stroke-linecap="round"
       stroke-miterlimit="6"
       transform="matrix(0,1,-1,0,2925,1225)"
       id="path4485" />
    <path
       style="stroke-linecap: round; stroke-miterlimit: 6;"
       fill="none"
       stroke="#000000"
       d="M150,75L137.5,75"
       stroke-width="2"
       stroke-linecap="round"
       stroke-miterlimit="6"
       transform="matrix(1,0,0,-1,3125,1475)"
       id="path4511" />
    <path
       style="stroke-linecap: round; stroke-miterlimit: 6;"
       fill="none"
       stroke="#000000"
       d="M0,100L12.5,100"
       stroke-width="2"
       stroke-linecap="round"
       stroke-miterlimit="6"
       transform="matrix(1,0,0,-1,3125,1475)"
       id="path4513" />
    <path
       style="stroke-linecap: round; stroke-miterlimit: 6;"
       fill="none"
       stroke="#000000"
       d="M12.5,50L0,50"
       stroke-width="2"
       stroke-linecap="round"
       stroke-miterlimit="6"
       transform="matrix(1,0,0,-1,3125,1475)"
       id="path4515" />
    <text
       style="font-family: Arial; font-size: 16px; font-weight: bold; text-anchor: start;"
       x="0"
       y="0"
       text-anchor="start"
       stroke="none"
       fill="#000000"
       transform="translate(3162.5,1400)"
       id="text4517">
      <tspan
         dy="7.2"
         id="tspan4519" />
    </text>
    <path
       style="stroke-linecap: round; stroke-miterlimit: 6;"
       fill="none"
       stroke="#000000"
       d="M25,45.31249L25,0"
       stroke-width="2"
       stroke-linecap="round"
       stroke-miterlimit="6"
       transform="matrix(0,1,-1,0,3125,1350)"
       id="path4523" />
    <text
       style="font-family: Arial; font-size: 16px; font-weight: bold; text-anchor: middle;"
       x="0"
       y="0"
       text-anchor="middle"
       stroke="none"
       fill="#000000"
       transform="translate(2875,1278.35)"
       id="text4487">
      <tspan
         dy="7.2"
         id="tspan4489">100 kΩ</tspan>
    </text>
    <path
       style="stroke-linecap: round;"
       fill="none"
       stroke="#000000"
       d="M 2775 1250 L 2825 1250"
       stroke-width="2"
       stroke-linecap="round"
       class="cl_wire"
       id="path4491" />
    <path
       style="stroke-linecap: round;"
       d="M 2775 1250 L 2775 1350"
       class="cl_wire"
       id="path4493"
       stroke-linecap="round"
       stroke-width="2"
       stroke="#000000"
       fill="none" />
    <text
       style="font-family: Arial; font-size: 16px; font-weight: bold; text-anchor: middle;"
       x="0"
       y="0"
       text-anchor="middle"
       stroke="none"
       fill="#000000"
       transform="translate(3075,1415.85)"
       id="text4529">
      <tspan
         dy="7.2"
         id="tspan4531" />
    </text>
    <path
       style="stroke-linecap: round;"
       fill="none"
       stroke="#000000"
       d="M 3100 1375 L 3125 1375"
       stroke-width="2"
       stroke-linecap="round"
       class="cl_wire"
       id="path4533" />
    <path
       style="stroke-linecap: round; stroke-miterlimit: 6;"
       fill="none"
       stroke="#000000"
       d="M25,54.68752L25,100"
       stroke-width="2"
       stroke-linecap="round"
       stroke-miterlimit="6"
       transform="matrix(0,1,-1,0,3250,1275)"
       id="path4535" />
    <path
       style="stroke-linecap: round; stroke-miterlimit: 6;"
       fill="none"
       stroke="#000000"
       d="M25,45.31249L25,0"
       stroke-width="2"
       stroke-linecap="round"
       stroke-miterlimit="6"
       transform="matrix(0,1,-1,0,3250,1275)"
       id="path4537" />
    <path
       style="stroke-linecap: round; stroke-miterlimit: 6;"
       fill="none"
       stroke="#000000"
       d="M50,45.31249L0,45.31249"
       stroke-width="2"
       stroke-linecap="round"
       stroke-miterlimit="6"
       transform="matrix(0,1,-1,0,3250,1275)"
       id="path4539" />
    <path
       style="stroke-linecap: round; stroke-miterlimit: 6;"
       fill="none"
       stroke="#000000"
       d="M50,54.68752L0,54.68752"
       stroke-width="2"
       stroke-linecap="round"
       stroke-miterlimit="6"
       transform="matrix(0,1,-1,0,3250,1275)"
       id="path4541" />
    <text
       style="font-family: Arial; font-size: 16px; font-weight: bold; text-anchor: middle;"
       x="0"
       y="0"
       text-anchor="middle"
       stroke="none"
       fill="#000000"
       transform="translate(3200,1340.85)"
       id="text4543">
      <tspan
         dy="7.2"
         id="tspan4545" />
    </text>
    <path
       style="stroke-linecap: round;"
       fill="none"
       stroke="#000000"
       d="M 3125 1300 L 3150 1300"
       stroke-width="2"
       stroke-linecap="round"
       class="cl_wire"
       id="path4547" />
    <path
       style="stroke-linecap: round;"
       fill="none"
       stroke="#000000"
       d="M 3125 1300 L 3125 1375"
       stroke-width="2"
       stroke-linecap="round"
       class="cl_wire"
       id="path4549" />
    <path
       style="fill:none;stroke:#000000;stroke-width:1.712085;stroke-linecap:round;stroke-miterlimit:4;stroke-dasharray:none"
       d="m 3249.5417,1300 25.2578,0"
       class="cl_wire"
       id="path4551"
       inkscape:connector-curvature="0" />
    <path
       style="fill:none;stroke:#000000;stroke-width:2;stroke-linecap:round"
       d="m 3274.3412,1300 0,100"
       class="cl_wire"
       id="path4553"
       inkscape:connector-curvature="0" />
    <path
       style="fill:none;stroke:#000000;stroke-width:1.498347;stroke-linecap:round;stroke-miterlimit:4;stroke-dasharray:none"
       d="m 3274.1663,1400 8.9026,0"
       class="cl_wire"
       id="path4555"
       inkscape:connector-curvature="0" />
    <path
       style="stroke-linecap: round; stroke-miterlimit: 6;"
       fill="none"
       stroke="#000000"
       d="M22.65619,48.43752L81.24996,31.50002"
       stroke-width="3"
       stroke-linecap="round"
       stroke-miterlimit="6"
       transform="translate(2700,1425)"
       id="path4563" />
    <path
       style="stroke-linecap: round;"
       fill="none"
       stroke="#000000"
       d="M 2925 1250 L 3025 1250"
       stroke-width="2"
       stroke-linecap="round"
       class="cl_wire"
       id="path4495" />
    <path
       style="stroke-linecap: round;"
       fill="none"
       stroke="#000000"
       d="M 3025 1250 L 3025 1375"
       stroke-width="2"
       stroke-linecap="round"
       class="cl_wire"
       id="path4497" />
    <path
       style="stroke-linecap: round;"
       fill="none"
       stroke="#000000"
       d="M 2800 1400 L 2825 1400"
       stroke-width="2"
       stroke-linecap="round"
       class="cl_wire"
       id="path4499" />
    <path
       style="stroke-linecap: round; stroke-miterlimit: 6;"
       fill="none"
       stroke="#000000"
       d="M25,54.68752L25,100"
       stroke-width="2"
       stroke-linecap="round"
       stroke-miterlimit="6"
       transform="matrix(0,1,-1,0,3125,1350)"
       id="path4521" />
    <path
       style="stroke-linecap: round; stroke-miterlimit: 6;"
       fill="none"
       stroke="#000000"
       d="M50,45.31249L0,45.31249"
       stroke-width="2"
       stroke-linecap="round"
       stroke-miterlimit="6"
       transform="matrix(0,1,-1,0,3125,1350)"
       id="path4525" />
    <path
       style="stroke-linecap: round; stroke-miterlimit: 6;"
       fill="none"
       stroke="#000000"
       d="M23.43752,50C23.43752,47.41132,21.33869,45.31252,18.75002,45.31252C16.16119,45.31252,14.06251,47.41132,14.06251,50C14.06251,52.58882,16.16119,54.68752,18.75002,54.68752C21.33869,54.68752,23.43752,52.58882,23.43752,50"
       stroke-width="2"
       stroke-linecap="round"
       stroke-miterlimit="6"
       transform="translate(2700,1425)"
       id="path4565" />
    <path
       style="stroke-linecap: round; stroke-miterlimit: 6;"
       fill="none"
       stroke="#000000"
       d="M14.06251,50L6.25,50"
       stroke-width="2"
       stroke-linecap="round"
       stroke-miterlimit="6"
       transform="translate(2700,1425)"
       id="path4567" />
    <path
       style="stroke-linecap: round; stroke-miterlimit: 6;"
       fill="none"
       stroke="#000000"
       d="M0,50L6.25,50"
       stroke-width="2"
       stroke-linecap="round"
       stroke-miterlimit="6"
       transform="translate(2700,1425)"
       id="path4573" />
    <text
       style="font-family: Arial; font-size: 16px; font-weight: bold; text-anchor: middle;"
       x="0"
       y="0"
       text-anchor="middle"
       stroke="none"
       fill="#000000"
       transform="translate(2750,1490.85)"
       id="text4583">
      <tspan
         dy="7.2"
         id="tspan4585">Mode Switch</tspan>
    </text>
    <path
       style="stroke-linecap: round; stroke-miterlimit: 6;"
       fill="none"
       stroke="#000000"
       d="M50,54.68752L0,54.68752"
       stroke-width="2"
       stroke-linecap="round"
       stroke-miterlimit="6"
       transform="matrix(0,1,-1,0,3125,1350)"
       id="path4527" />
    <text
       style="font-style:normal;font-weight:bold;font-size:16px;font-family:Arial;text-anchor:start;fill:#000000;stroke:none"
       x="3057.894"
       y="1423.5776"
       font-style="normal"
       id="text4557">
      <tspan
         dy="7.1999998"
         id="tspan4559">VRef</tspan>
    </text>
    <path
       style="stroke-linecap: round; stroke-miterlimit: 6;"
       fill="none"
       stroke="#000000"
       d="M25,100.00002L25,75"
       stroke-width="2"
       stroke-linecap="round"
       stroke-miterlimit="6"
       transform="translate(2800,1475)"
       id="path4591" />
    <path
       style="stroke-linecap: round; stroke-miterlimit: 6;"
       fill="none"
       stroke="#000000"
       d="M85.93756,50L93.75,50"
       stroke-width="2"
       stroke-linecap="round"
       stroke-miterlimit="6"
       transform="translate(2700,1425)"
       id="path4571" />
    <path
       style="stroke-linecap: round; stroke-miterlimit: 6;"
       fill="none"
       stroke="#000000"
       d="M100,50L93.75,50"
       stroke-width="2"
       stroke-linecap="round"
       stroke-miterlimit="6"
       transform="translate(2700,1425)"
       id="path4575" />
    <path
       style="stroke-linecap: round; stroke-miterlimit: 6;"
       fill="none"
       stroke="#000000"
       d="M76.56256,25C76.56256,27.58882,78.66126,29.68752,81.24996,29.68752C83.83876,29.68752,85.93756,27.58882,85.93756,25C85.93756,22.41124,83.83876,20.3125,81.24996,20.3125C78.66126,20.3125,76.56256,22.41124,76.56256,25"
       stroke-width="2"
       stroke-linecap="round"
       stroke-miterlimit="6"
       transform="translate(2700,1425)"
       id="path4577" />
    <path
       style="stroke-linecap: round; stroke-miterlimit: 6;"
       fill="none"
       stroke="#000000"
       d="M85.93756,25L93.75,25"
       stroke-width="2"
       stroke-linecap="round"
       stroke-miterlimit="6"
       transform="translate(2700,1425)"
       id="path4579" />
    <path
       style="stroke-linecap: round; stroke-miterlimit: 6;"
       fill="none"
       stroke="#000000"
       d="M100,25L93.75,25"
       stroke-width="2"
       stroke-linecap="round"
       stroke-miterlimit="6"
       transform="translate(2700,1425)"
       id="path4581" />
    <path
       style="fill:none;stroke:#000000;stroke-width:2.01923299;stroke-linecap:round"
       d="m 2646.5984,1575 178.382,0"
       class="cl_wire"
       id="path4603"
       inkscape:connector-curvature="0" />
    <text
       style="font-family: Arial; font-size: 16px; font-weight: bold; text-anchor: end;"
       x="0"
       y="0"
       text-anchor="end"
       stroke="none"
       fill="#000000"
       transform="translate(2962.5,1450)"
       id="text4617">
      <tspan
         dy="7.2"
         id="tspan4619" />
    </text>
    <path
       style="fill:none;fill-rule:evenodd;stroke:#000000;stroke-width:3.38418961;stroke-linecap:butt;stroke-linejoin:miter;stroke-miterlimit:4;stroke-dasharray:3.38418956, 3.38418956;stroke-dashoffset:0;stroke-opacity:1"
       d="m 2745.7779,1242.4333 0,214.7822 535.6967,0 0,-226.5835 -535.6967,0 z"
       id="path5881"
       inkscape:connector-curvature="0" />
    <path
       style="stroke-linecap: round; stroke-miterlimit: 6;"
       fill="#ffffff"
       stroke="#000000"
       d="M137.5,75L12.5,12.5L12.5,137.5L137.5,75Z"
       stroke-width="2"
       stroke-linecap="round"
       stroke-miterlimit="6"
       transform="matrix(1,0,0,-1,3125,1475)"
       id="path4505" />
    <path
       fill="#000000"
       stroke="none"
       d="M20.241317,49.30424L20.241317,51.00004L36.397536,51.00004L36.397536,49.30424L20.241317,49.30424"
       transform="matrix(1,0,0,-1,3125,1475)"
       id="path4507" />
    <path
       fill="#000000"
       stroke="none"
       d="M29.136487,91.78334L27.440701,91.78334L27.440701,99.15232L20.133404,99.15232L20.133404,100.84812L27.440701,100.84812L27.440701,108.21702L29.136487,108.21702L29.136487,100.84812L36.443785,100.84812L36.443785,99.15232L29.136487,99.15232L29.136487,91.78334"
       transform="matrix(1,0,0,-1,3125,1475)"
       id="path4509" />
    <path
       style="stroke-linecap: round; stroke-miterlimit: 6;"
       fill="none"
       stroke="#000000"
       d="M76.56256,50C76.56256,47.41132,78.66126,45.31252,81.24996,45.31252C83.83876,45.31252,85.93756,47.41132,85.93756,50C85.93756,52.58882,83.83876,54.68752,81.24996,54.68752C78.66126,54.68752,76.56256,52.58882,76.56256,50"
       stroke-width="2"
       stroke-linecap="round"
       stroke-miterlimit="6"
       transform="translate(2700,1425)"
       id="path4569" />
    <text
       style="font-style:normal;font-weight:bold;font-size:16px;font-family:Arial;text-anchor:start;fill:#000000;stroke:none"
       x="2755.1318"
       y="1400.0918"
       font-style="normal"
       id="text4625">
      <tspan
         dy="7.1999998"
         id="tspan4627">VRef</tspan>
    </text>
    <path
       style="stroke-linecap: round; stroke-miterlimit: 6;"
       fill="none"
       stroke="#000000"
       d="M25,0L25,25"
       stroke-width="2"
       stroke-linecap="round"
       stroke-miterlimit="6"
       transform="translate(2800,1475)"
       id="path4589" />
    <path
       style="stroke-linecap: round;"
       fill="none"
       stroke="#000000"
       d="M 2800 1475 L 2825 1475"
       stroke-width="2"
       stroke-linecap="round"
       class="cl_wire"
       id="path4601" />
    <path
       style="stroke-linecap: round; stroke-miterlimit: 6;"
       fill="none"
       stroke="#000000"
       d="M150,75L137.5,75"
       stroke-width="2"
       stroke-linecap="round"
       stroke-miterlimit="6"
       transform="matrix(-1,0,0,1,3000,1375)"
       id="path4611" />
    <path
       style="stroke-linecap: round; stroke-miterlimit: 6;"
       fill="none"
       stroke="#000000"
       d="M0,100L12.5,100"
       stroke-width="2"
       stroke-linecap="round"
       stroke-miterlimit="6"
       transform="matrix(-1,0,0,1,3000,1375)"
       id="path4613" />
    <path
       style="stroke-linecap: round; stroke-miterlimit: 6;"
       fill="none"
       stroke="#000000"
       d="M12.5,50L0,50"
       stroke-width="2"
       stroke-linecap="round"
       stroke-miterlimit="6"
       transform="matrix(-1,0,0,1,3000,1375)"
       id="path4615" />
    <path
       style="stroke-linecap: round; stroke-miterlimit: 6;"
       fill="#ffffff"
       stroke="#000000"
       d="M137.5,75L12.5,12.5L12.5,137.5L137.5,75Z"
       stroke-width="2"
       stroke-linecap="round"
       stroke-miterlimit="6"
       transform="matrix(-1,0,0,1,3000,1375)"
       id="path4605" />
    <path
       fill="#000000"
       stroke="none"
       d="M20.241317,49.30424L20.241317,51.00004L36.397536,51.00004L36.397536,49.30424L20.241317,49.30424"
       transform="matrix(-1,0,0,1,3000,1375)"
       id="path4607" />
    <path
       fill="#000000"
       stroke="none"
       d="M29.136487,91.78334L27.440701,91.78334L27.440701,99.15232L20.133404,99.15232L20.133404,100.84812L27.440701,100.84812L27.440701,108.21702L29.136487,108.21702L29.136487,100.84812L36.443785,100.84812L36.443785,99.15232L29.136487,99.15232L29.136487,91.78334"
       transform="matrix(-1,0,0,1,3000,1375)"
       id="path4609" />
    <path
       style="stroke-linecap: round;"
       fill="none"
       stroke="#000000"
       d="M 3000 1425 L 3025 1425"
       stroke-width="2"
       stroke-linecap="round"
       class="cl_wire"
       id="path4621" />
    <path
       style="stroke-linecap: round;"
       fill="none"
       stroke="#000000"
       d="M 3025 1375 L 3025 1425"
       stroke-width="2"
       stroke-linecap="round"
       class="cl_wire"
       id="path4623" />
    <text
       style="font-style:normal;font-weight:bold;font-size:16px;font-family:Arial;text-anchor:start;fill:#000000;stroke:none"
       x="3287.8293"
       y="1397.5259"
       font-style="normal"
       id="text4629">
      <tspan
         dy="7.1999998"
         id="tspan4631">Vout</tspan>
    </text>
    <path
       style="stroke-linecap: round;"
       fill="none"
       stroke="#000000"
       d="M 2625 1325 L 2625 1425"
       stroke-width="2"
       stroke-linecap="round"
       class="cl_wire"
       id="path4633" />
    <path
       style="stroke-linecap: round;"
       fill="none"
       stroke="#000000"
       d="M 2975 1375 L 3025 1375"
       stroke-width="2"
       stroke-linecap="round"
       class="cl_wire"
       id="path4635" />
    <path
       style="stroke-linecap: round;"
       fill="none"
       stroke="#000000"
       d="M 3100 1375 L 3125 1375"
       stroke-width="2"
       stroke-linecap="round"
       class="cl_wire"
       id="path4637" />
    <path
       style="stroke-linecap: round;"
       fill="none"
       stroke="#000000"
       d="M 3000 1475 L 3025 1475"
       stroke-width="2"
       stroke-linecap="round"
       class="cl_wire"
       id="path4639" />
    <path
       style="stroke-linecap: round;"
       fill="none"
       stroke="#000000"
       d="M 3100 1425 L 3125 1425"
       stroke-width="2"
       stroke-linecap="round"
       class="cl_wire"
       id="path4641" />
    <path
       style="stroke-linecap: round;"
       fill="none"
       stroke="#000000"
       d="M 2800 1450 L 2850 1450"
       stroke-width="2"
       stroke-linecap="round"
       class="cl_wire"
       id="path4643" />
    <circle
       cx="2625"
       cy="1225"
       r="3"
       fill="#000000"
       stroke="#000000"
       id="circle4645" />
    <circle
       cx="2625"
       cy="1350"
       r="3"
       fill="#000000"
       stroke="#000000"
       id="circle4647" />
    <circle
       cx="2775"
       cy="1350"
       r="3"
       fill="#000000"
       stroke="#000000"
       id="circle4649" />
    <circle
       cx="3025"
       cy="1375"
       r="3"
       fill="#000000"
       stroke="#000000"
       id="circle4651" />
    <circle
       cx="3125"
       cy="1375"
       r="3"
       fill="#000000"
       stroke="#000000"
       id="circle4653" />
    <path
       inkscape:connector-curvature="0"
       id="path5883"
       d="m 2698.8712,1247.613 0,309.4231 345.8478,0 0,-326.4245 -345.8478,0 z"
       style="fill:none;fill-rule:evenodd;stroke:#919191;stroke-width:2.61611724;stroke-linecap:butt;stroke-linejoin:miter;stroke-miterlimit:4;stroke-dasharray:15.69670315, 2.61611719;stroke-dashoffset:0;stroke-opacity:1" />
    <text
       style="font-family: Arial; font-size: 16px; font-weight: bold; text-anchor: start;"
       x="0"
       y="0"
       text-anchor="start"
       stroke="none"
       fill="#000000"
       transform="translate(2856.25,1525)"
       id="text4597">
      <tspan
         dy="7.2"
         id="tspan4599">Vb</tspan>
    </text>
    <path
       style="stroke-linecap: round; stroke-miterlimit: 6;"
       fill="#ffffff"
       stroke="#000000"
       d="M50,50C50,36.19374,38.806255,25,25,25C11.193755,25,0,36.19374,0,50C0,63.80632,11.193755,75,25,75C38.806255,75,50,63.80632,50,50"
       stroke-width="2"
       stroke-linecap="round"
       stroke-miterlimit="6"
       transform="translate(2800,1475)"
       id="path4587" />
    <path
       style="font-size: 15px; font-weight: normal;"
       fill="#000000"
       stroke="none"
       d="M17.006089,60.39372L17.006089,62.07822L33.055093,62.07822L33.055093,60.39372L17.006089,60.39372"
       font-size="15px"
       font-weight="normal"
       transform="translate(2800,1475)"
       id="path4595" />
    <path
       style="font-size: 15px; font-weight: normal;"
       fill="#000000"
       stroke="none"
       d="M25.84227,33.168L24.157737,33.168L24.157737,40.48806L16.898932,40.48806L16.898932,42.17259L24.157737,42.17259L24.157737,49.49262L25.84227,49.49262L25.84227,42.17259L33.101076,42.17259L33.101076,40.48806L25.84227,40.48806L25.84227,33.168"
       font-size="15px"
       font-weight="normal"
       transform="translate(2800,1475)"
       id="path4593" />
    <path
       style="stroke-linecap: round;"
       fill="none"
       stroke="#000000"
       d="M 2675 1475 L 2700 1475"
       stroke-width="2"
       stroke-linecap="round"
       class="cl_wire"
       id="path4561" />
    <text
       style="font-style:normal;font-weight:bold;font-size:16px;font-family:Arial;text-anchor:start;fill:#000000;stroke:none"
       x="3030.4487"
       y="1475.0382"
       font-style="normal"
       id="text4501">
      <tspan
         dy="7.1999998"
         id="tspan4503">VRef</tspan>
    </text>
    <text
       xml:space="preserve"
       style="font-style:normal;font-weight:normal;font-size:29.07999992px;line-height:125%;font-family:sans-serif;letter-spacing:0px;word-spacing:0px;fill:#000000;fill-opacity:1;stroke:none;stroke-width:1px;stroke-linecap:butt;stroke-linejoin:miter;stroke-opacity:1"
       x="3230.4631"
       y="1259.681"
       id="text5885"
       sodipodi:linespacing="125%"><tspan
         sodipodi:role="line"
         id="tspan5887"
         x="3230.4631"
         y="1259.681">CMS</tspan></text>
    <text
       xml:space="preserve"
       style="font-style:normal;font-weight:normal;font-size:29.07999992px;line-height:125%;font-family:sans-serif;letter-spacing:0px;word-spacing:0px;fill:#616161;fill-opacity:1;stroke:none;stroke-width:1px;stroke-linecap:butt;stroke-linejoin:miter;stroke-opacity:1"
       x="2698.6174"
       y="1555.5209"
       id="text5889"
       sodipodi:linespacing="125%"><tspan
         sodipodi:role="line"
         id="tspan5891"
         x="2698.6174"
         y="1555.5209"
         style="fill:#616161;fill-opacity:1">GVT</tspan></text>
    <g
       id="g6322"
       transform="translate(-187.12026,54.491063)">
      <rect
         y="1476.8772"
         x="3109.9822"
         height="106.92587"
         width="152.16373"
         id="rect6320"
         style="opacity:1;fill:#ffffff;fill-opacity:1;stroke:#000000;stroke-width:1.454;stroke-miterlimit:4;stroke-dasharray:none;stroke-dashoffset:0;stroke-opacity:1" />
      <g
         id="g6308">
        <text
           xml:space="preserve"
           style="font-style:normal;font-weight:normal;font-size:13.01210594px;line-height:125%;font-family:sans-serif;letter-spacing:0px;word-spacing:0px;fill:#000000;fill-opacity:1;stroke:none;stroke-width:1px;stroke-linecap:butt;stroke-linejoin:miter;stroke-opacity:1"
           x="2299.9255"
           y="2195.2124"
           id="text6216"
           sodipodi:linespacing="125%"
           transform="scale(1.4017173,0.71341063)"><tspan
             sodipodi:role="line"
             id="tspan6218"
             x="2299.9255"
             y="2195.2124"
             style="font-size:20.81937027px">f</tspan></text>
        <g
           id="g6299">
          <path
             style="fill:none;fill-rule:evenodd;stroke:#000000;stroke-width:1.04096854;stroke-linecap:butt;stroke-linejoin:miter;stroke-miterlimit:4;stroke-dasharray:2.08193699, 1.0409685;stroke-dashoffset:0;stroke-opacity:1"
             d="m 3176.1715,1489.4436 0,67.6516"
             id="path6210"
             inkscape:connector-curvature="0" />
          <text
             xml:space="preserve"
             style="font-style:normal;font-weight:normal;font-size:13.01210594px;line-height:125%;font-family:sans-serif;letter-spacing:0px;word-spacing:0px;fill:#000000;fill-opacity:1;stroke:none;stroke-width:1px;stroke-linecap:butt;stroke-linejoin:miter;stroke-opacity:1"
             x="2256.2048"
             y="2196.2534"
             id="text6212"
             sodipodi:linespacing="125%"
             transform="scale(1.4017173,0.71341063)"><tspan
               sodipodi:role="line"
               id="tspan6214"
               x="2256.2048"
               y="2196.2534">20Hz</tspan></text>
          <g
             transform="matrix(2.007075,0,0,1.0215103,-2675.4215,39.635841)"
             id="g6205">
            <path
               style="fill:none;fill-rule:evenodd;stroke:#000000;stroke-width:0.727px;stroke-linecap:butt;stroke-linejoin:miter;stroke-opacity:1;marker-start:url(#Arrow1Lstart)"
               d="m 2898.4867,1419.8647 0,86.7398"
               id="path5933"
               inkscape:connector-curvature="0" />
            <path
               style="fill:none;fill-rule:evenodd;stroke:#000000;stroke-width:0.727px;stroke-linecap:butt;stroke-linejoin:miter;stroke-opacity:1;marker-start:url(#marker6201)"
               d="m 2945.9588,1479.6451 -48.0585,0"
               id="path6197"
               inkscape:connector-curvature="0" />
            <path
               style="fill:none;fill-rule:evenodd;stroke:#000000;stroke-width:2.03091264;stroke-linecap:butt;stroke-linejoin:miter;stroke-miterlimit:4;stroke-dasharray:none;stroke-opacity:1"
               d="m 2897.9006,1438.0332 c 28.2476,-0.6359 19.2468,1.0058 35.7509,58.0219"
               id="path6199"
               inkscape:connector-curvature="0"
               sodipodi:nodetypes="cc" />
          </g>
        </g>
      </g>
    </g>
    <path
       style="fill:none;fill-rule:evenodd;stroke:#000000;stroke-width:2.181;stroke-linecap:butt;stroke-linejoin:miter;stroke-miterlimit:4;stroke-dasharray:none;stroke-opacity:1;marker-start:url(#TriangleInM)"
       d="m 2962.9591,1536.509 -27.7595,-78.1381"
       id="path6283"
       inkscape:connector-curvature="0"
       sodipodi:nodetypes="cc" />
    <g
       id="g4343">
      <path
         inkscape:connector-curvature="0"
         style="fill:none;stroke:#000000;stroke-width:1.831313;stroke-linecap:round;stroke-miterlimit:4;stroke-dasharray:none"
         d="m 3126.1667,1333.1873 55.0489,0"
         class="cl_wire"
         id="path4334" />
      <path
         inkscape:connector-curvature="0"
         style="fill:none;stroke:#000000;stroke-width:1.831313;stroke-linecap:round;stroke-miterlimit:6;stroke-dasharray:none"
         d="m 3219.8714,1333.3503 -3.1925,-4.8985 -6.3851,9.797 -6.3851,-9.797 -6.3851,9.797 -6.3851,-9.797 -6.385,9.797 -3.1926,-4.8985"
         stroke-miterlimit="6"
         id="path4332" />
      <path
         inkscape:connector-curvature="0"
         style="fill:none;stroke:#000000;stroke-width:1.847307;stroke-linecap:round;stroke-miterlimit:4;stroke-dasharray:none"
         d="m 3220.0906,1333.329 53.2647,0"
         class="cl_wire"
         id="path4336" />
    </g>
    <text
       id="text4336"
       font-style="normal"
       y="1349.5383"
       x="3199.7158"
       style="font-style:normal;font-weight:bold;font-size:16px;font-family:Arial;text-anchor:start;fill:#000000;stroke:none">
      <tspan
         id="tspan4338">Rx</tspan>
    </text>
  </g>
</svg>
