<?xml version="1.0" encoding="UTF-8" standalone="no"?>
<svg
   xmlns:dc="http://purl.org/dc/elements/1.1/"
   xmlns:cc="http://creativecommons.org/ns#"
   xmlns:rdf="http://www.w3.org/1999/02/22-rdf-syntax-ns#"
   xmlns:svg="http://www.w3.org/2000/svg"
   xmlns="http://www.w3.org/2000/svg"
   xmlns:sodipodi="http://sodipodi.sourceforge.net/DTD/sodipodi-0.dtd"
   xmlns:inkscape="http://www.inkscape.org/namespaces/inkscape"
   version="1.2"
   width="120mm"
   height="40mm"
   viewBox="0 0 120 40"
   stroke="none"
   fill="#000000"
   stroke-width="0.3"
   font-size="3.88"
   id="svg4412"
   inkscape:version="0.91 r13725"
   sodipodi:docname="Tran.svg">
  <metadata
     id="metadata4455">
    <rdf:RDF>
      <cc:Work
         rdf:about="">
        <dc:format>image/svg+xml</dc:format>
        <dc:type
           rdf:resource="http://purl.org/dc/dcmitype/StillImage" />
        <dc:title />
      </cc:Work>
    </rdf:RDF>
  </metadata>
  <sodipodi:namedview
     pagecolor="#ffffff"
     bordercolor="#666666"
     borderopacity="1"
     objecttolerance="10"
     gridtolerance="10"
     guidetolerance="10"
     inkscape:pageopacity="0"
     inkscape:pageshadow="2"
     inkscape:window-width="1107"
     inkscape:window-height="707"
     id="namedview4453"
     showgrid="false"
     inkscape:zoom="4.5430819"
     inkscape:cx="127.49159"
     inkscape:cy="65.645886"
     inkscape:window-x="0"
     inkscape:window-y="23"
     inkscape:window-maximized="0"
     inkscape:current-layer="img-1da3a3da-32" />
  <defs
     id="defs4448">
    <clipPath
       id="img-83febf0a-11">
      <path
         d="M18.4,5 L 100.14 5 100.14 35 18.4 35"
         id="path4451" />
    </clipPath>
    <clipPath
       id="img-3166fbe1-4">
      <path
         id="path4728"
         d="M20.86,5 L 115 5 115 21.33 20.86 21.33" />
    </clipPath>
    <clipPath
       id="img-1da3a3da-11">
      <path
         id="path5103"
         d="M18.4,5 L 100.14 5 100.14 35 18.4 35" />
    </clipPath>
  </defs>
  <g
     style="font-size:3.88000011px;fill:#000000;stroke:none;stroke-width:0.30000001"
     id="g4736"
     transform="matrix(0.73811116,0,0,0.49552888,5.5678705,20.859925)">
    <g
       id="img-3166fbe1-1"
       class="plotroot xscalable yscalable">
      <g
         id="img-3166fbe1-2"
         font-size="3.88"
         style="font-size:3.88000011px;font-family:'PT Sans', 'Helvetica Neue', Helvetica, sans-serif;fill:#564a55;stroke:#000000;stroke-opacity:0">
        <text
           id="text4662"
           dy="0"
           y="28.379999"
           x="67.93"
           style="text-anchor:middle">Time(s)</text>
      </g>
      <g
         id="img-3166fbe1-3"
         font-size="2.82"
         class="guide xlabels"
         style="font-size:2.81999993px;font-family:'PT Sans Caption', 'Helvetica Neue', Helvetica, sans-serif;fill:#6c606b">
        <text
           id="text4665"
           dy="0"
           y="22.33"
           x="22.860001"
           style="text-anchor:middle">0.98</text>
        <text
           id="text4667"
           dy="0"
           y="22.33"
           x="45.400002"
           style="text-anchor:middle">1.00</text>
        <text
           id="text4669"
           dy="0"
           y="22.33"
           x="67.93"
           style="text-anchor:middle">1.02</text>
        <text
           id="text4671"
           dy="0"
           y="22.33"
           x="90.470001"
           style="text-anchor:middle">1.04</text>
        <text
           id="text4673"
           dy="0"
           y="22.33"
           x="113"
           style="text-anchor:middle">1.06</text>
      </g>
      <g
         id="g4675"
         clip-path="url(#img-3166fbe1-4)">
        <g
           id="img-3166fbe1-5">
          <g
             id="img-3166fbe1-6"
             class="guide background"
             pointer-events="visible"
             style="opacity:1;fill:#000000;fill-opacity:0;stroke:#000000;stroke-opacity:0">
            <rect
               id="rect4679"
               height="16.33"
               width="94.139999"
               y="5"
               x="20.860001" />
          </g>
          <g
             id="img-3166fbe1-7"
             class="guide ygridlines xfixed"
             style="stroke:#d0d0e0;stroke-width:0.2;stroke-dasharray:0.5, 0.5">
            <path
               id="path4682"
               d="m 20.86,19.33 94.14,0"
               inkscape:connector-curvature="0"
               style="fill:none" />
            <path
               id="path4684"
               d="m 20.86,16.87 94.14,0"
               inkscape:connector-curvature="0"
               style="fill:none" />
            <path
               id="path4686"
               d="m 20.86,14.4 94.14,0"
               inkscape:connector-curvature="0"
               style="fill:none" />
            <path
               id="path4688"
               d="m 20.86,11.93 94.14,0"
               inkscape:connector-curvature="0"
               style="fill:none" />
            <path
               id="path4690"
               d="m 20.86,9.47 94.14,0"
               inkscape:connector-curvature="0"
               style="fill:none" />
            <path
               id="path4692"
               d="M 20.86,7 115,7"
               inkscape:connector-curvature="0"
               style="fill:none" />
          </g>
          <g
             id="img-3166fbe1-8"
             class="guide xgridlines yfixed"
             style="stroke:#d0d0e0;stroke-width:0.2;stroke-dasharray:0.5, 0.5">
            <path
               id="path4695"
               d="m 22.86,5 0,16.33"
               inkscape:connector-curvature="0"
               style="fill:none" />
            <path
               id="path4697"
               d="m 45.4,5 0,16.33"
               inkscape:connector-curvature="0"
               style="fill:none" />
            <path
               id="path4699"
               d="m 67.93,5 0,16.33"
               inkscape:connector-curvature="0"
               style="fill:none" />
            <path
               id="path4701"
               d="m 90.47,5 0,16.33"
               inkscape:connector-curvature="0"
               style="fill:none" />
            <path
               id="path4703"
               d="m 113,5 0,16.33"
               inkscape:connector-curvature="0"
               style="fill:none" />
          </g>
          <g
             id="img-3166fbe1-9"
             class="plotpanel">
            <g
               id="img-3166fbe1-10"
               class="geometry"
               style="fill:#000000;fill-opacity:0;stroke:#00bfff;stroke-width:1.32000005;stroke-dasharray:none">
              <path
                 id="path4707"
                 d="m 22.86,7 1.13,0 1.13,0 1.12,0 1.13,0 1.13,0 1.12,0 1.13,0 1.13,0 1.12,0 1.13,0 1.13,0 1.12,0 1.13,0 1.13,0 1.12,0 1.13,0 1.13,0 1.12,0 1.13,0 1.13,0 1.12,9.87 1.13,0 1.13,0 1.12,0 1.13,0 1.13,0 1.12,0 1.13,0 1.13,0 1.12,0 1.13,0 1.13,0 1.12,0 1.13,0 1.13,0 1.12,0 1.13,0 1.13,0 1.12,0 1.13,0 1.13,0 1.12,0 1.13,0 1.13,0 1.12,0 1.13,0 1.13,0 1.13,0 1.12,0 1.13,0 1.13,0 1.12,0 1.13,0 1.13,0 1.12,0 1.13,0 1.13,0 1.12,0 1.13,0 1.13,0 1.12,0 1.13,0 1.13,0 1.12,0 1.13,0 1.13,0 1.12,0 1.13,0 1.13,0 1.12,0 1.13,0 1.13,0 1.12,0 1.13,0 1.13,0"
                 inkscape:connector-curvature="0"
                 style="fill:none" />
            </g>
          </g>
        </g>
      </g>
      <g
         id="img-3166fbe1-11"
         font-size="2.82"
         class="guide ylabels"
         style="font-size:2.81999993px;font-family:'PT Sans Caption', 'Helvetica Neue', Helvetica, sans-serif;fill:#6c606b">
        <text
           id="text4712"
           dy="0"
           y="18.009075"
           x="19.860001"
           style="text-anchor:end">2.060</text>
        <text
           id="text4720"
           dy="0"
           y="8.1390743"
           x="19.860001"
           style="text-anchor:end">2.080</text>
      </g>
      <g
         id="img-3166fbe1-12"
         font-size="3.88"
         style="font-size:3.88000011px;font-family:'PT Sans', 'Helvetica Neue', Helvetica, sans-serif;fill:#564a55;stroke:#000000;stroke-opacity:0">
        <text
           id="text4723"
           transform="matrix(0,-1,1,0,-4.77,21.57)"
           dy="0"
           y="11.17"
           x="8.3999996"
           style="text-anchor:middle">Vin</text>
      </g>
    </g>
  </g>
  <g
     style="font-size:3.88000011px;fill:#000000;stroke:none;stroke-width:0.30000001"
     id="g5111"
     transform="matrix(0.85054609,0,0,0.65771649,5.3452199,-0.49568687)">
    <g
       id="img-1da3a3da-1"
       class="plotroot xscalable yscalable">
      <g
         id="img-1da3a3da-2"
         class="guide colorkey">
        <g
           id="img-1da3a3da-3"
           font-size="2.82"
           style="font-size:2.81999993px;font-family:'PT Sans', 'Helvetica Neue', Helvetica, sans-serif;fill:#4c404b">
          <text
             class="color_gm=50u"
             id="img-1da3a3da-4"
             dy="0"
             y="20"
             x="103.94">gm=50u</text>
          <text
             class="color_gm=200n"
             id="img-1da3a3da-5"
             dy="0"
             y="23.610001"
             x="103.94">gm=200n</text>
        </g>
        <g
           id="img-1da3a3da-6"
           style="stroke:#000000;stroke-opacity:0">
          <rect
             class="color_gm=50u"
             id="img-1da3a3da-7"
             height="1.8"
             width="1.8"
             y="19.1"
             x="101.14"
             style="fill:#00bfff" />
          <rect
             class="color_gm=200n"
             id="img-1da3a3da-8"
             height="1.8"
             width="1.8"
             y="22.709999"
             x="101.14"
             style="fill:#d4ca3a" />
        </g>
        <g
           id="img-1da3a3da-9"
           font-size="3.88"
           style="font-size:3.88000011px;font-family:'PT Sans', 'Helvetica Neue', Helvetica, sans-serif;fill:#362a35;stroke:#000000;stroke-opacity:0">
          <text
             id="img-1da3a3da-10"
             y="15.41"
             x="101.14">name</text>
        </g>
      </g>
      <g
         id="g5070"
         clip-path="url(#img-1da3a3da-11)">
        <g
           id="img-1da3a3da-12">
          <g
             id="img-1da3a3da-13"
             class="guide background"
             pointer-events="visible"
             style="opacity:1;fill:#000000;fill-opacity:0;stroke:#000000;stroke-opacity:0">
            <rect
               id="img-1da3a3da-14"
               height="30"
               width="81.739998"
               y="5"
               x="18.4" />
          </g>
          <g
             id="img-1da3a3da-15"
             class="guide ygridlines xfixed"
             style="stroke:#d0d0e0;stroke-width:0.2;stroke-dasharray:0.5, 0.5">
            <path
               id="img-1da3a3da-16"
               d="m 18.4,33 81.74,0"
               inkscape:connector-curvature="0"
               style="fill:none" />
            <path
               id="img-1da3a3da-17"
               d="m 18.473037,25.27215 81.740003,0"
               inkscape:connector-curvature="0"
               style="fill:none" />
            <path
               id="img-1da3a3da-18"
               d="m 18.4,20 81.74,0"
               inkscape:connector-curvature="0"
               style="fill:none" />
            <path
               id="img-1da3a3da-19"
               d="m 18.4,13.5 81.74,0"
               inkscape:connector-curvature="0"
               style="fill:none" />
            <path
               id="img-1da3a3da-20"
               d="m 18.4,7 81.74,0"
               inkscape:connector-curvature="0"
               style="fill:none" />
            <path
               style="fill:none"
               inkscape:connector-curvature="0"
               d="m 18.4,13.5 81.74,0"
               id="path4228" />
            <path
               id="path4230"
               d="m 18.326963,9.5787931 81.739997,0"
               inkscape:connector-curvature="0"
               style="fill:none" />
            <path
               style="fill:none"
               inkscape:connector-curvature="0"
               d="m 18.4,20 81.74,0"
               id="path4241" />
          </g>
          <g
             id="img-1da3a3da-21"
             class="guide xgridlines yfixed"
             style="stroke:#d0d0e0;stroke-width:0.2;stroke-dasharray:0.5, 0.5">
            <path
               id="img-1da3a3da-22"
               d="m 20.4,5 0,30"
               inkscape:connector-curvature="0"
               style="fill:none" />
            <path
               id="img-1da3a3da-23"
               d="m 39.83,5 0,30"
               inkscape:connector-curvature="0"
               style="fill:none" />
            <path
               id="img-1da3a3da-24"
               d="m 59.27,5 0,30"
               inkscape:connector-curvature="0"
               style="fill:none" />
            <path
               id="img-1da3a3da-25"
               d="m 78.7,5 0,30"
               inkscape:connector-curvature="0"
               style="fill:none" />
            <path
               id="img-1da3a3da-26"
               d="m 98.14,5 0,30"
               inkscape:connector-curvature="0"
               style="fill:none" />
          </g>
          <g
             id="img-1da3a3da-27"
             class="plotpanel">
            <g
               id="img-1da3a3da-28"
               class="geometry color_gm=200n"
               style="fill:#000000;fill-opacity:0;stroke:#d4ca3a;stroke-width:1.32000005;stroke-dasharray:none"
               transform="translate(0,-0.9444999)">
              <path
                 id="img-1da3a3da-29"
                 d="m 20.4,25.25 0.97,0 0.97,0 0.97,0 0.97,0 0.97,-0.01 0.98,0 0.97,0 0.97,0 0.97,-0.01 0.97,0.01 0.98,0 0.97,0.01 0.97,0.01 0.97,0.02 0.97,0 0.97,0.01 0.98,0.01 0.97,0.02 0.97,0 0.97,0.01 0.97,-0.66 0.97,0 0.98,0 0.97,-0.02 0.97,0 0.97,0.02 0.97,0 0.98,0.01 0.97,0.01 0.97,0.02 0.97,0 0.97,0 0.97,0.01 0.98,0 0.97,0.01 0.97,0.01 0.97,0.02 0.97,0.01 0.98,0.01 0.97,0.02 0.97,0.01 0.97,0.01 0.97,0.02 0.97,0 0.98,0 0.97,0 0.97,0 0.97,0.01 0.97,0 0.97,0 0.98,0 0.97,0 0.97,-0.01 0.97,-0.02 0.97,0 0.98,-0.01 0.97,-0.01 0.97,-0.02 0.97,-0.01 0.97,0 0.97,-0.01 0.98,-0.02 0.97,-0.01 0.97,-0.01 0.97,-0.01 0.97,-0.02 0.97,-0.01 0.98,-0.03 0.97,-0.01 0.97,-0.01 0.97,-0.01 0.97,-0.02 0.98,-0.02 0.97,-0.02 0.97,-0.01"
                 inkscape:connector-curvature="0"
                 style="fill:none" />
            </g>
            <g
               id="img-1da3a3da-30"
               class="geometry color_gm=50u"
               style="fill:#000000;fill-opacity:0;stroke:#00bfff;stroke-width:0.79000002;stroke-dasharray:none">
              <path
                 id="img-1da3a3da-31"
                 d="m 20.326963,24.391904 0.97,0.01 0.97,0.02 0.97,0.01 0.97,0.01 0.97,0.03 0.98,0 0.97,-0.02 0.97,0 0.97,0 0.97,0 0.98,0 0.97,-0.02 0.97,-0.01 0.97,-0.03 0.97,-0.01 0.97,-0.03 0.98,-0.01 0.97,-0.03 0.97,-0.01 0.97,-0.03 0.97,-13.05 0.97,2.25 0.98,0.64 0.97,0.37 0.97,0.3 0.97,0.25 0.97,0.21 0.98,0.17 0.97,0.15 0.97,0.16 0.97,0.12 0.97,0.11 0.97,0.13 0.98,0.12 0.97,0.1 0.97,0.11 0.97,0.11 0.97,0.11 0.98,0.09 0.97,0.09 0.97,0.09 0.97,0.08 0.97,0.09 0.97,0.09 0.98,0.08 0.97,0.08 0.97,0.06 0.97,0.08 0.97,0.07 0.97,0.06 0.98,0.07 0.97,0.06 0.97,0.07 0.97,0.05 0.97,0.06 0.98,0.07 0.97,0.06 0.97,0.07 0.97,0.06 0.97,0.08 0.97,0.07 0.98,0.06 0.97,0.07 0.97,0.06 0.97,0.07 0.97,0.06 0.97,0.07 0.98,0.06 0.97,0.07 0.97,0.06 0.97,0.07 0.97,0.06 0.98,0.07 0.97,0.05 0.97,0.06"
                 inkscape:connector-curvature="0"
                 style="fill:none" />
            </g>
          </g>
        </g>
      </g>
      <g
         id="img-1da3a3da-32"
         font-size="2.82"
         class="guide ylabels"
         style="font-size:2.81999993px;font-family:'PT Sans Caption', 'Helvetica Neue', Helvetica, sans-serif;fill:#6c606b">
        <text
           id="img-1da3a3da-33"
           dy="0"
           y="33"
           x="17.4"
           style="text-anchor:end">0.0</text>
        <text
           id="img-1da3a3da-34"
           dy="0"
           y="25.753893"
           x="17.576326"
           style="text-anchor:end">0.65</text>
        <text
           id="img-1da3a3da-35"
           dy="0"
           y="20"
           x="17.4"
           style="text-anchor:end">1.0</text>
        <text
           id="img-1da3a3da-36"
           dy="0"
           y="11.02891"
           x="17.658224"
           style="text-anchor:end">1.48</text>
        <text
           id="img-1da3a3da-37"
           dy="0"
           y="7"
           x="17.4"
           style="text-anchor:end">2.0</text>
        <text
           style="text-anchor:end"
           x="47.813629"
           y="22.731493"
           dy="0"
           id="text4247">0.74</text>
      </g>
      <g
         id="img-1da3a3da-38"
         font-size="3.88"
         style="font-size:3.88000011px;font-family:'PT Sans', 'Helvetica Neue', Helvetica, sans-serif;fill:#564a55;stroke:#000000;stroke-opacity:0">
        <text
           id="img-1da3a3da-39"
           transform="matrix(0,-1,1,0,-11.19,28.81)"
           dy="0"
           y="18"
           x="8.8100004"
           style="text-anchor:middle">Vout(v)</text>
      </g>
    </g>
  </g>
</svg>
