<?xml version="1.0" encoding="UTF-8" standalone="no"?>
<svg
   xmlns:dc="http://purl.org/dc/elements/1.1/"
   xmlns:cc="http://creativecommons.org/ns#"
   xmlns:rdf="http://www.w3.org/1999/02/22-rdf-syntax-ns#"
   xmlns:svg="http://www.w3.org/2000/svg"
   xmlns="http://www.w3.org/2000/svg"
   xmlns:sodipodi="http://sodipodi.sourceforge.net/DTD/sodipodi-0.dtd"
   xmlns:inkscape="http://www.inkscape.org/namespaces/inkscape"
   version="1.2"
   width="120mm"
   height="40mm"
   viewBox="0 0 120 40"
   stroke="none"
   fill="#000000"
   stroke-width="0.3"
   font-size="3.88"
   id="svg4412"
   inkscape:version="0.91 r13725"
   sodipodi:docname="Tran.svg">
  <metadata
     id="metadata4455">
    <rdf:RDF>
      <cc:Work
         rdf:about="">
        <dc:format>image/svg+xml</dc:format>
        <dc:type
           rdf:resource="http://purl.org/dc/dcmitype/StillImage" />
        <dc:title></dc:title>
      </cc:Work>
    </rdf:RDF>
  </metadata>
  <sodipodi:namedview
     pagecolor="#ffffff"
     bordercolor="#666666"
     borderopacity="1"
     objecttolerance="10"
     gridtolerance="10"
     guidetolerance="10"
     inkscape:pageopacity="0"
     inkscape:pageshadow="2"
     inkscape:window-width="1107"
     inkscape:window-height="707"
     id="namedview4453"
     showgrid="false"
     inkscape:zoom="1.7753347"
     inkscape:cx="170.15109"
     inkscape:cy="57.660349"
     inkscape:window-x="0"
     inkscape:window-y="46"
     inkscape:window-maximized="0"
     inkscape:current-layer="img-3166fbe1-1" />
  <defs
     id="defs4448">
    <clipPath
       id="img-83febf0a-11">
      <path
         d="M18.4,5 L 100.14 5 100.14 35 18.4 35"
         id="path4451" />
    </clipPath>
    <clipPath
       id="img-3166fbe1-4">
      <path
         id="path4728"
         d="M20.86,5 L 115 5 115 21.33 20.86 21.33" />
    </clipPath>
    <clipPath
       id="img-1da3a3da-11">
      <path
         id="path5103"
         d="M18.4,5 L 100.14 5 100.14 35 18.4 35" />
    </clipPath>
    <marker
       inkscape:isstock="true"
       style="overflow:visible"
       id="Arrow1Mstart"
       refX="0.0"
       refY="0.0"
       orient="auto"
       inkscape:stockid="Arrow1Mstart">
      <path
         transform="scale(0.4) translate(10,0)"
         style="fill-rule:evenodd;stroke:#a8a8a8;stroke-width:1pt;stroke-opacity:1;fill:#a8a8a8;fill-opacity:1"
         d="M 0.0,0.0 L 5.0,-5.0 L -12.5,0.0 L 5.0,5.0 L 0.0,0.0 z "
         id="path4197" />
    </marker>
    <marker
       inkscape:isstock="true"
       style="overflow:visible"
       id="Arrow1Lstart"
       refX="0.0"
       refY="0.0"
       orient="auto"
       inkscape:stockid="Arrow1Lstart">
      <path
         transform="scale(0.8) translate(12.5,0)"
         style="fill-rule:evenodd;stroke:#000000;stroke-width:1pt;stroke-opacity:1;fill:#000000;fill-opacity:1"
         d="M 0.0,0.0 L 5.0,-5.0 L -12.5,0.0 L 5.0,5.0 L 0.0,0.0 z "
         id="path4191" />
    </marker>
    <clipPath
       id="img-b240eef6-11">
      <path
         id="path53"
         d="M21.75,5 L 100.14 5 100.14 35 21.75 35" />
    </clipPath>
  </defs>
  <g
     style="font-size:3.88000011px;fill:#000000;stroke:none;stroke-width:0.30000001"
     id="g4736"
     transform="matrix(0.73811116,0,0,0.49552888,-2.605574,20.859925)">
    <g
       id="img-3166fbe1-1"
       class="plotroot xscalable yscalable">
      <g
         id="img-3166fbe1-2"
         font-size="3.88"
         style="font-size:3.88000011px;font-family:'PT Sans', 'Helvetica Neue', Helvetica, sans-serif;fill:#564a55;stroke:#000000;stroke-opacity:0">
        <text
           id="text4662"
           dy="0"
           y="28.379999"
           x="67.93"
           style="text-anchor:middle">Time(s)</text>
      </g>
      <g
         id="img-3166fbe1-3"
         font-size="2.82"
         class="guide xlabels"
         style="font-size:2.81999993px;font-family:'PT Sans Caption', 'Helvetica Neue', Helvetica, sans-serif;fill:#6c606b">
        <text
           id="text4665"
           dy="0"
           y="22.33"
           x="22.860001"
           style="text-anchor:middle">0.98</text>
        <text
           id="text4667"
           dy="0"
           y="22.33"
           x="45.400002"
           style="text-anchor:middle">1.00</text>
        <text
           id="text4669"
           dy="0"
           y="22.33"
           x="67.93"
           style="text-anchor:middle">1.02</text>
        <text
           id="text4671"
           dy="0"
           y="22.33"
           x="90.470001"
           style="text-anchor:middle">1.04</text>
        <text
           id="text4673"
           dy="0"
           y="22.33"
           x="113"
           style="text-anchor:middle">1.06</text>
      </g>
      <g
         id="g4675"
         clip-path="url(#img-3166fbe1-4)">
        <g
           id="img-3166fbe1-5">
          <g
             id="img-3166fbe1-6"
             class="guide background"
             pointer-events="visible"
             style="opacity:1;fill:#000000;fill-opacity:0;stroke:#000000;stroke-opacity:0">
            <rect
               id="rect4679"
               height="16.33"
               width="94.139999"
               y="5"
               x="20.860001" />
          </g>
          <g
             id="img-3166fbe1-7"
             class="guide ygridlines xfixed"
             style="stroke:#d0d0e0;stroke-width:0.2;stroke-dasharray:0.5, 0.5">
            <path
               id="path4682"
               d="m 20.86,19.33 94.14,0"
               inkscape:connector-curvature="0"
               style="fill:none" />
            <path
               id="path4684"
               d="m 20.86,16.87 94.14,0"
               inkscape:connector-curvature="0"
               style="fill:none" />
            <path
               id="path4686"
               d="m 20.86,14.4 94.14,0"
               inkscape:connector-curvature="0"
               style="fill:none" />
            <path
               id="path4688"
               d="m 20.86,11.93 94.14,0"
               inkscape:connector-curvature="0"
               style="fill:none" />
            <path
               id="path4690"
               d="m 20.86,9.47 94.14,0"
               inkscape:connector-curvature="0"
               style="fill:none" />
            <path
               id="path4692"
               d="M 20.86,7 115,7"
               inkscape:connector-curvature="0"
               style="fill:none" />
          </g>
          <g
             id="img-3166fbe1-8"
             class="guide xgridlines yfixed"
             style="stroke:#d0d0e0;stroke-width:0.2;stroke-dasharray:0.5, 0.5">
            <path
               id="path4695"
               d="m 22.86,5 0,16.33"
               inkscape:connector-curvature="0"
               style="fill:none" />
            <path
               id="path4697"
               d="m 45.4,5 0,16.33"
               inkscape:connector-curvature="0"
               style="fill:none" />
            <path
               id="path4699"
               d="m 67.93,5 0,16.33"
               inkscape:connector-curvature="0"
               style="fill:none" />
            <path
               id="path4701"
               d="m 90.47,5 0,16.33"
               inkscape:connector-curvature="0"
               style="fill:none" />
            <path
               id="path4703"
               d="m 113,5 0,16.33"
               inkscape:connector-curvature="0"
               style="fill:none" />
          </g>
          <g
             id="img-3166fbe1-9"
             class="plotpanel">
            <g
               id="img-3166fbe1-10"
               class="geometry"
               style="fill:#000000;fill-opacity:0;stroke:#00bfff;stroke-width:1.32000005;stroke-dasharray:none">
              <path
                 id="path4707"
                 d="m 22.86,7 1.13,0 1.13,0 1.12,0 1.13,0 1.13,0 1.12,0 1.13,0 1.13,0 1.12,0 1.13,0 1.13,0 1.12,0 1.13,0 1.13,0 1.12,0 1.13,0 1.13,0 1.12,0 1.13,0 1.13,0 1.12,9.87 1.13,0 1.13,0 1.12,0 1.13,0 1.13,0 1.12,0 1.13,0 1.13,0 1.12,0 1.13,0 1.13,0 1.12,0 1.13,0 1.13,0 1.12,0 1.13,0 1.13,0 1.12,0 1.13,0 1.13,0 1.12,0 1.13,0 1.13,0 1.12,0 1.13,0 1.13,0 1.13,0 1.12,0 1.13,0 1.13,0 1.12,0 1.13,0 1.13,0 1.12,0 1.13,0 1.13,0 1.12,0 1.13,0 1.13,0 1.12,0 1.13,0 1.13,0 1.12,0 1.13,0 1.13,0 1.12,0 1.13,0 1.13,0 1.12,0 1.13,0 1.13,0 1.12,0 1.13,0 1.13,0"
                 inkscape:connector-curvature="0"
                 style="fill:none" />
            </g>
          </g>
        </g>
      </g>
      <g
         id="img-3166fbe1-11"
         font-size="2.82"
         class="guide ylabels"
         style="font-size:2.81999993px;font-family:'PT Sans Caption', 'Helvetica Neue', Helvetica, sans-serif;fill:#6c606b">
        <text
           id="text4712"
           dy="0"
           y="18.009075"
           x="19.860001"
           style="text-anchor:end">2.060</text>
        <text
           id="text4720"
           dy="0"
           y="8.1390743"
           x="19.860001"
           style="text-anchor:end">2.080</text>
      </g>
      <g
         id="img-3166fbe1-12"
         font-size="3.88"
         style="font-size:3.88000011px;font-family:'PT Sans', 'Helvetica Neue', Helvetica, sans-serif;fill:#564a55;stroke:#000000;stroke-opacity:0"
         transform="translate(1.0768599,-0.64161127)">
        <text
           id="text4723"
           transform="matrix(0,-1,1,0,-4.77,21.57)"
           dy="0"
           y="11.17"
           x="8.3999996"
           style="text-anchor:middle">Vin</text>
      </g>
    </g>
  </g>
  <g
     style="font-size:3.88000011px;fill:#000000;stroke:none;stroke-width:0.30000001"
     id="g4373"
     transform="matrix(0.8941063,0,0,0.40316171,-6.9231579,8.3308847)">
    <g
       id="img-b240eef6-1"
       class="plotroot xscalable yscalable">
      <g
         id="img-b240eef6-2"
         class="guide colorkey">
        <g
           id="img-b240eef6-3"
           font-size="2.82"
           style="font-size:2.81999993px;font-family:'PT Sans', 'Helvetica Neue', Helvetica, sans-serif;fill:#4c404b">
          <text
             class="color_gm=50u"
             id="img-b240eef6-4"
             dy="0"
             y="20"
             x="103.94">gm=50u</text>
          <text
             class="color_gm=200n"
             id="img-b240eef6-5"
             dy="0"
             y="23.610001"
             x="103.94">gm=200n</text>
        </g>
        <g
           id="img-b240eef6-6"
           style="stroke:#000000;stroke-opacity:0">
          <rect
             class="color_gm=50u"
             id="img-b240eef6-7"
             height="1.8"
             width="1.8"
             y="19.1"
             x="101.14"
             style="fill:#00bfff" />
          <rect
             class="color_gm=200n"
             id="img-b240eef6-8"
             height="1.8"
             width="1.8"
             y="22.709999"
             x="101.14"
             style="fill:#d4ca3a" />
        </g>
        <g
           id="img-b240eef6-9"
           font-size="3.88"
           style="font-size:3.88000011px;font-family:'PT Sans', 'Helvetica Neue', Helvetica, sans-serif;fill:#362a35;stroke:#000000;stroke-opacity:0">
          <text
             id="img-b240eef6-10"
             y="15.41"
             x="101.14">name</text>
        </g>
      </g>
      <g
         id="g14"
         clip-path="url(#img-b240eef6-11)">
        <g
           id="img-b240eef6-12">
          <g
             id="img-b240eef6-13"
             class="guide background"
             pointer-events="visible"
             style="opacity:1;fill:#000000;fill-opacity:0;stroke:#000000;stroke-opacity:0">
            <rect
               id="img-b240eef6-14"
               height="30"
               width="78.389999"
               y="5"
               x="21.75" />
          </g>
          <g
             id="img-b240eef6-15"
             class="guide ygridlines xfixed"
             style="stroke:#d0d0e0;stroke-width:0.2;stroke-dasharray:0.5, 0.5">
            <path
               id="img-b240eef6-16"
               d="m 21.75,33 78.39,0"
               inkscape:connector-curvature="0"
               style="fill:none" />
            <path
               id="img-b240eef6-17"
               d="m 21.75,20 78.39,0"
               inkscape:connector-curvature="0"
               style="fill:none" />
            <path
               id="img-b240eef6-18"
               d="m 21.75,13.5 78.39,0"
               inkscape:connector-curvature="0"
               style="fill:none" />
            <path
               id="img-b240eef6-19"
               d="m 21.75,7 78.39,0"
               inkscape:connector-curvature="0"
               style="fill:none" />
            <path
               id="img-b240eef6-20"
               d="m 21.75,24.68 78.39,0"
               inkscape:connector-curvature="0"
               style="fill:none" />
            <path
               id="img-b240eef6-21"
               d="m 21.75,11.51 78.39,0"
               inkscape:connector-curvature="0"
               style="fill:none" />
            <path
               id="img-b240eef6-22"
               d="m 21.75,25.25 78.39,0"
               inkscape:connector-curvature="0"
               style="fill:none" />
            <path
               id="img-b240eef6-23"
               d="m 21.75,24.67 78.39,0"
               inkscape:connector-curvature="0"
               style="fill:none" />
          </g>
          <g
             id="img-b240eef6-24"
             class="guide xgridlines yfixed"
             style="stroke:#d0d0e0;stroke-width:0.2;stroke-dasharray:0.5, 0.5">
            <path
               id="img-b240eef6-25"
               d="m 23.75,5 0,30"
               inkscape:connector-curvature="0"
               style="fill:none" />
            <path
               id="img-b240eef6-26"
               d="m 42.35,5 0,30"
               inkscape:connector-curvature="0"
               style="fill:none" />
            <path
               id="img-b240eef6-27"
               d="m 60.94,5 0,30"
               inkscape:connector-curvature="0"
               style="fill:none" />
            <path
               id="img-b240eef6-28"
               d="m 79.54,5 0,30"
               inkscape:connector-curvature="0"
               style="fill:none" />
            <path
               id="img-b240eef6-29"
               d="m 98.14,5 0,30"
               inkscape:connector-curvature="0"
               style="fill:none" />
          </g>
          <g
             id="img-b240eef6-30"
             class="plotpanel">
            <g
               id="img-b240eef6-31"
               class="geometry color_gm=200n"
               style="fill:#000000;fill-opacity:0;stroke:#d4ca3a;stroke-width:0.52999997;stroke-dasharray:none">
              <path
                 id="img-b240eef6-32"
                 d="m 23.75,25.25 0.93,0 0.93,0 0.93,0 0.93,0 0.93,-0.01 0.93,0 0.93,0 0.93,0 0.93,-0.01 0.93,0.01 0.93,0 0.93,0.01 0.93,0.01 0.93,0.02 0.93,0 0.93,0.01 0.93,0.01 0.93,0.02 0.93,0 0.93,0.01 0.93,-0.66 0.93,0 0.93,0 0.93,-0.02 0.93,0 0.93,0.02 0.92,0 0.93,0.01 0.93,0.01 0.93,0.02 0.93,0 0.93,0 0.93,0.01 0.93,0 0.93,0.01 0.93,0.01 0.93,0.02 0.93,0.01 0.93,0.01 0.93,0.02 0.93,0.01 0.93,0.01 0.93,0.02 0.93,0 0.93,0 0.93,0 0.93,0 0.93,0.01 0.93,0 0.93,0 0.93,0 0.93,0 0.93,-0.01 0.93,-0.02 0.93,0 0.93,-0.01 0.93,-0.01 0.93,-0.02 0.93,-0.01 0.93,0 0.93,-0.01 0.93,-0.02 0.93,-0.01 0.93,-0.01 0.93,-0.01 0.93,-0.02 0.93,-0.01 0.93,-0.03 0.93,-0.01 0.93,-0.01 0.93,-0.01 0.93,-0.02 0.93,-0.02 0.93,-0.02 0.93,-0.01"
                 inkscape:connector-curvature="0"
                 style="fill:none" />
            </g>
            <g
               id="img-b240eef6-33"
               class="geometry color_gm=50u"
               style="fill:#000000;fill-opacity:0;stroke:#00bfff;stroke-width:1.05999994;stroke-dasharray:none">
              <path
                 id="img-b240eef6-34"
                 d="m 23.75,24.68 0.93,0.01 0.93,0.02 0.93,0.01 0.93,0.01 0.93,0.03 0.93,0 0.93,-0.02 0.93,0 0.93,0 0.93,0 0.93,0 0.93,-0.02 0.93,-0.01 0.93,-0.03 0.93,-0.01 0.93,-0.03 0.93,-0.01 0.93,-0.03 0.93,-0.01 0.93,-0.03 0.93,-13.05 0.93,2.25 0.93,0.64 0.93,0.37 0.93,0.3 0.93,0.25 0.92,0.21 0.93,0.17 0.93,0.15 0.93,0.16 0.93,0.12 0.93,0.11 0.93,0.13 0.93,0.12 0.93,0.1 0.93,0.11 0.93,0.11 0.93,0.11 0.93,0.09 0.93,0.09 0.93,0.09 0.93,0.08 0.93,0.09 0.93,0.09 0.93,0.08 0.93,0.08 0.93,0.06 0.93,0.08 0.93,0.07 0.93,0.06 0.93,0.07 0.93,0.06 0.93,0.07 0.93,0.05 0.93,0.06 0.93,0.07 0.93,0.06 0.93,0.07 0.93,0.06 0.93,0.08 0.93,0.07 0.93,0.06 0.93,0.07 0.93,0.06 0.93,0.07 0.93,0.06 0.93,0.07 0.93,0.06 0.93,0.07 0.93,0.06 0.93,0.07 0.93,0.06 0.93,0.07 0.93,0.05 0.93,0.06"
                 inkscape:connector-curvature="0"
                 style="fill:none" />
            </g>
          </g>
        </g>
      </g>
      <g
         id="img-b240eef6-35"
         font-size="2.82"
         class="guide ylabels"
         style="font-size:2.81999993px;font-family:'PT Sans Caption', 'Helvetica Neue', Helvetica, sans-serif;fill:#6c606b">
        <text
           id="img-b240eef6-36"
           dy="0"
           y="33"
           x="20.75"
           style="text-anchor:end">0.000</text>
        <text
           id="img-b240eef6-37"
           dy="0"
           y="20"
           x="20.75"
           style="text-anchor:end">1.000</text>
        <text
           style="text-anchor:end"
           id="img-b240eef6-38"
           dy="0"
           y="14.307216"
           x="20.75">1.500</text>
        <text
           id="img-b240eef6-39"
           dy="0"
           y="7"
           x="20.75"
           style="text-anchor:end">2.000</text>
        <text
           style="text-anchor:end"
           id="img-b240eef6-40"
           dy="0"
           y="24.478199"
           x="20.75">0.640</text>
        <text
           id="img-b240eef6-41"
           dy="0"
           y="11.51"
           x="20.75"
           style="text-anchor:end">1.653</text>
        <text
           style="text-anchor:end"
           id="img-b240eef6-42"
           dy="0"
           y="27.469845"
           x="20.75">0.596</text>
        <text
           style="text-anchor:end"
           id="img-b240eef6-43"
           dy="0"
           y="23.156469"
           x="58.08374">0.641</text>
        <path
           inkscape:connector-curvature="0"
           id="path4185"
           d="m 43.387862,24.360189 6.861336,-1.311726"
           style="fill:none;fill-rule:evenodd;stroke:#a8a8a8;stroke-width:0.14111111;stroke-linecap:butt;stroke-linejoin:miter;stroke-miterlimit:4;stroke-dasharray:none;stroke-opacity:1;marker-start:url(#Arrow1Mstart)" />
      </g>
      <g
         id="img-b240eef6-44"
         font-size="3.88"
         style="font-size:3.88000011px;font-family:'PT Sans', 'Helvetica Neue', Helvetica, sans-serif;fill:#564a55;stroke:#000000;stroke-opacity:0"
         transform="translate(4.4448982,0.39430445)">
        <text
           id="img-b240eef6-45"
           transform="matrix(0,-1,1,0,-11.19,28.81)"
           dy="0"
           y="18"
           x="8.8100004"
           style="text-anchor:middle">Vout(v)</text>
      </g>
    </g>
  </g>
</svg>
